<?xml version="1.0" encoding="utf-8"?>
<!-- Generator: Adobe Illustrator 23.0.1, SVG Export Plug-In . SVG Version: 6.00 Build 0)  -->
<svg version="1.1" id="Layer_1" xmlns="http://www.w3.org/2000/svg" xmlns:xlink="http://www.w3.org/1999/xlink" x="0px" y="0px"
	 viewBox="0 0 42.7 23" style="enable-background:new 0 0 42.7 23;" xml:space="preserve">
<style type="text/css">
	.st0{fill:url(#SVGID_1_);}
	.st1{fill:#6C1011;}
	.st2{fill:url(#SVGID_2_);}
	.st3{fill:#FFFFFF;}
	.st4{fill:#EEBB31;}
</style>
<radialGradient id="SVGID_1_" cx="148.5597" cy="-333.6946" r="2.9715" gradientTransform="matrix(3.5277 0 0 3.5277 -513.2259 1189.157)" gradientUnits="userSpaceOnUse">
	<stop  offset="0" style="stop-color:#F2CB72"/>
	<stop  offset="1" style="stop-color:#EFBC32"/>
</radialGradient>
<path class="st0" d="M0.4,1.5h21v21h-21V1.5z"/>
<path class="st1" d="M15.6,10.4c0,0,1.2,0.6,2.4,0.1C18,10.5,16.8,10.8,15.6,10.4z M17.2,13.6c0,0,0.7,0.1,0.8,0
	C18,13.5,17.9,13.5,17.2,13.6L17.2,13.6z M17.7,13.3c0,0,0.4,0.1,0.5,0C18.2,13.3,18.1,13.2,17.7,13.3z M15.2,13.5
	c0,0-0.8-0.1-1.8-0.4C13.4,13.1,14.1,13.4,15.2,13.5z M11.8,16.3c0.7,0.3,2.5,0.8,5.2,0.6C17,17,13.4,16.7,11.8,16.3
	c-0.1-0.1-0.2-0.1-0.2-0.2c-0.1,0-0.3-0.1-0.3-0.1c0,0,0.2,0.1,0.3,0.2C11.6,16.3,11.7,16.3,11.8,16.3L11.8,16.3z M15.6,14.3
	c0,0-2-0.2-4.1-1C11.5,13.4,13.1,14.2,15.6,14.3z M15.3,13.9c0,0-1.6-0.1-3.2-0.7C12.1,13.1,13.5,13.8,15.3,13.9L15.3,13.9z
	 M17.2,16.5c0,0-3.6-0.1-5.8-0.8C11.4,15.7,13.4,16.7,17.2,16.5z M16.8,15.3c0,0-2.5,0.1-5.4-0.7C11.4,14.6,13.7,15.6,16.8,15.3z
	 M11.4,15c0,0,2.3,1,5.5,0.7C17,15.7,14.1,15.8,11.4,15z M14.7,14.9c-0.8-0.1-1.9-0.3-3.3-0.7c0,0,0.9,0.5,3.1,0.7
	c0.6,0.1,1.9,0.3,2.8,0.1C17.2,15,16,15,14.7,14.9L14.7,14.9z M11.4,15.3c0,0,1.9,1,5.3,0.7C16.8,16,12.9,16,11.4,15.3L11.4,15.3z
	 M11.9,16.8c0.8,0.3,2.5,0.8,5.1,0.6C16.9,17.4,13.5,17.2,11.9,16.8c-0.1-0.1-0.2-0.2-0.2-0.2c-0.1,0-0.3-0.1-0.4-0.1
	c0,0,0.2,0.1,0.3,0.2C11.7,16.8,11.8,16.8,11.9,16.8L11.9,16.8z M15.8,14.4c0,0,2,0.2,2.3,0C18.1,14.4,17.5,14.4,15.8,14.4z
	 M16.9,13.8c0,0,1,0.1,1.1,0C18,13.8,18,13.7,16.9,13.8z M6.2,11.7c0.2-0.1,0.3,0.6,0.3,0.6s0-1.5-0.7-1.2c-0.4,0.2,0,1.6,0.7,1.5
	C6.5,12.6,5.8,11.9,6.2,11.7L6.2,11.7z M18,14.1c0,0,0-0.1-1.6,0C16.4,14.1,18,14.2,18,14.1L18,14.1z M15.1,14.6
	c-0.8-0.1-2.2-0.3-3.8-0.8c0,0,1.1,0.6,4,0.9c0.5,0.1,1.5,0.2,2.3,0C17.6,14.6,16.4,14.7,15.1,14.6L15.1,14.6z M16.4,20.9
	c-1,0-1.8-0.2-2.4-0.2c-0.9-0.1-1.5-0.1-1.5-0.1s1,0.3,1.5,0.3c0.7,0.1,1.6,0.1,2.4,0.1c0.4,0,0.8,0,1.2,0c0.8,0,2.2,0.1,3.8-0.1
	v-0.2l-2.7,0.1C17.8,20.9,17.1,20.9,16.4,20.9z M15.8,21.2c-0.8,0-1.4-0.1-1.9-0.2c-0.8-0.1-1.4-0.1-1.4-0.1s1,0.3,1.4,0.3
	c0.6,0.1,1.2,0.1,1.9,0.1c0.8,0,1.7,0,2.5,0c0.6,0,1.7,0.1,3.1-0.1v-0.1c-0.9,0-2.1,0-3,0.1C17.3,21.3,16.5,21.3,15.8,21.2
	L15.8,21.2z M14.9,22.3c-0.3,0-0.6-0.1-0.9-0.1c-0.6-0.1-1-0.1-1-0.1s0.7,0.2,1,0.3c0.3,0.1,0.6,0,0.9,0.1c0.2,0,0.5,0,0.7,0.1h5.5
	c0.1,0,0.2,0,0.3,0v-0.2c-0.7,0-1.5,0-2.2,0.1C17.3,22.4,15.8,22.3,14.9,22.3z M8.6,14.7c0.1,0.3,0.6,0.3,0.6-0.1
	c0-0.3-0.3-0.2-0.3-0.2s-0.2,0-0.1-0.2C8.8,14.2,8.5,14.4,8.6,14.7L8.6,14.7z M15.4,21.6c-0.6,0-1.1-0.1-1.5-0.2
	c-0.7-0.1-1.3-0.1-1.3-0.1s0.9,0.2,1.3,0.3c0.4,0.1,0.9,0.1,1.4,0.1c1,0.1,2.2,0.1,3.2,0c0.6,0,1.6,0.1,2.8,0v-0.2
	c-0.9,0-2.1,0-2.9,0.1C17.2,21.6,16.2,21.6,15.4,21.6L15.4,21.6z M13.2,22.5h0.5c-0.4,0-0.7-0.1-0.7-0.1S13.1,22.4,13.2,22.5
	L13.2,22.5z M17.5,2.7c0,0-1.4-0.2-1.8-1.1C15.7,1.6,15.9,2.7,17.5,2.7L17.5,2.7z M15.2,21.9c-0.5,0-0.9-0.1-1.2-0.2
	c-0.6-0.1-1.1-0.1-1.1-0.1s0.8,0.2,1.1,0.3c0.4,0.1,0.8,0.1,1.2,0.1c1,0.1,2.2,0.1,3.3,0.1c0.6,0,1.6,0.1,2.9,0v-0.2
	c-0.8,0-1.9,0-2.7,0.1C17.2,22,16,22,15.2,21.9L15.2,21.9z M16.6,20.2c-0.3,0-0.8,0.1-1.1,0c-0.2-0.1-0.6-0.1-1.1-0.2
	c-1.6-0.1-2.1-0.2-2.1-0.2c0.5,0.1,1.1,0.3,1.8,0.4c0.6,0.1,1.1,0.1,1.7,0.1c0.3-0.1,1,0,1.2,0c1.4,0,2.8,0,3.7-0.1
	c0.1,0,0.3,0,0.6,0.1v-0.2c-0.2,0-0.4,0-0.6,0.1C19,20.2,17.7,20.2,16.6,20.2L16.6,20.2z M19.7,8.3c0,0-0.2-0.1-0.4-0.2
	c-0.1-0.1-0.3-0.1-0.4-0.1c0,0,0.1,0,0.4,0.2C19.4,8.3,19.5,8.4,19.7,8.3L19.7,8.3z M20.3,14.2c0,0,0.3,0.1,0.6,0.1
	c-0.1,0.1-0.2,0.1-0.5,0.2c-0.6,0-0.8-0.2-1.1-0.4c-0.4-0.1-0.7-0.2-0.8,0c0,0,0,0.1,0,0.1c-0.3,0-0.5-0.1-0.5-0.1
	c0.2,0.2,0.5,0.2,0.6,0.2c0,0,0,0,0,0.1c-0.1,0.1-0.6,0-0.6,0s0.2,0.3,0.5,0.3c0.3,0,0.4-0.1,0.7,0s0.3,0.3,0.4,0.5
	c0.2,0.3,0.4,0.1,0.6,0.2c0,0,0,0,0.1,0.1c-0.5,0.2-0.7-0.1-0.7-0.1c0.1,0.5,0.7,0.3,0.8,0.2c0.1,0.1,0.1,0.1,0.1,0.1
	c-0.1,0-0.3,0.2-0.4,0.2c-0.6,0.2-0.6-0.2-1.2-0.3c-0.5,0-0.8,0.3-1,0.4c-0.3,0.1-0.5,0.1-0.9,0l-0.3,0.3c1.4,0.3,1.4,0,2,0
	c0.6,0,0.7,0.2,1.1,0.3s0.7-0.2,1-0.1c0.1,0,0.2,0.1,0.3,0.1h0c0,0,0,0.1,0,0.1c-0.3,0.1-0.5,0.1-0.8,0.2c0,0,0.4,0,0.9,0
	c0.1,0,0,0.2-0.1,0.2c-0.4,0.1-0.9,0.1-1.3,0.1c0,0,0.5,0.1,1.3,0.1c0.2,0,0,0.2-0.1,0.2c-0.9,0.2-2.4-0.1-2.4-0.1
	c0.6,0.3,1.7,0.3,2.1,0.3c0.4,0-0.2,0.2-0.9,0.2c-0.3,0-0.6,0-1-0.1c-0.3,0-0.8-0.1-0.8-0.1c0.2,0.1,1.2,0.4,1.2,0.4
	c-0.3,0.2-1.4,0.1-1.4,0.1c0.6,0.2,1.4,0.2,1.4,0.2s0.2,0,0.6,0c0.6,0,1.2,0.1,1.6,0.1v-2.3c-0.1,0-0.2-0.1-0.3-0.1
	c-0.1,0-0.2-0.1-0.2-0.2c0.1,0,0.3,0,0.5,0.1v-0.2c-0.1-0.1-0.3-0.1-0.5-0.1c0-0.1,0-0.2,0.1-0.2c0.1,0,0.2,0,0.4,0.1v-0.2
	c-0.1,0-0.2,0-0.3,0c0-0.1,0.1-0.1,0.1-0.2c0,0,0.1,0,0.2,0v-0.1c0,0,0,0,0,0c0,0,0,0,0,0V14c-0.1,0-0.1,0-0.2,0.1
	C21,14.1,20.6,14.2,20.3,14.2z M19.8,14.4c0,0,0.4,0.3,1,0.1C20.8,14.5,20.3,15,19.8,14.4L19.8,14.4z M13.5,18.8
	c0.2,0,0.6,0.1,0.8,0.1c0.7,0.1,1.3,0.1,2.3,0.1c0,0-1-0.1-2.3-0.2c-0.2,0-0.7,0-0.9-0.1c-0.1-0.1-0.3-0.1-0.6-0.2
	c-0.4-0.1-0.7-0.2-1-0.2c0,0,0.4,0.2,1,0.4C12.9,18.8,13.3,18.9,13.5,18.8L13.5,18.8z M13,18.3c0.2,0,0.5,0.1,0.7,0.1
	c0.8,0.1,1.6,0.2,2.8,0.2c0,0-1.4-0.1-2.8-0.3c-0.2,0-0.7,0-0.8-0.1c-0.2-0.1-0.3-0.1-0.5-0.2c-0.2,0-0.5-0.1-0.7-0.1
	c0,0,0.4,0.2,0.7,0.3C12.5,18.3,12.8,18.3,13,18.3L13,18.3z M12.5,17.8c0.2,0,0.6,0.1,0.8,0.2c0.8,0.2,1.7,0.3,3.2,0.2
	c0,0-1.8-0.1-3.3-0.3C13,17.9,12.6,17.8,12.5,17.8c-0.2-0.2-0.3-0.2-0.4-0.3c-0.2,0-0.5-0.1-0.6-0.1c0,0,0.3,0.2,0.6,0.3
	C12.2,17.8,12.4,17.8,12.5,17.8L12.5,17.8z M14.2,19.3c0.2,0,0.6,0.1,0.8,0.1c0.6,0,1,0.1,1.8,0c0,0-0.6,0-1.8-0.2
	c-0.2,0-0.7,0-1-0.1c-0.3-0.1-0.5-0.2-0.9-0.2c-0.5-0.1-1-0.1-1.3-0.2c0,0,0.5,0.3,1.2,0.4C13.4,19.3,13.9,19.4,14.2,19.3L14.2,19.3
	z M14.9,19.8c0.2,0,0.5,0,0.7,0c0.6,0,1.4,0,2.2,0c0,0-1,0-2.3-0.1c-0.2,0-0.5,0-0.8-0.1c-0.3-0.1-0.5-0.1-1-0.2
	c-0.7-0.1-1.3-0.2-1.6-0.2c0,0,0.7,0.3,1.4,0.4C13.8,19.8,14.3,19.8,14.9,19.8L14.9,19.8z M21.3,19.6v-0.2c-1.4,0-2.2,0.1-2.2,0.1
	C20,19.5,20.7,19.6,21.3,19.6L21.3,19.6z M12.2,17.3c0.2,0,0.5,0.1,0.7,0.2c0.9,0.2,2.3,0.5,4.2,0.3c0,0-2.4-0.1-4.1-0.4
	C12.7,17.4,12.3,17.3,12.2,17.3c-0.1-0.1-0.3-0.2-0.3-0.2c-0.1,0-0.4-0.1-0.5-0.1c0,0,0.3,0.1,0.5,0.2
	C11.9,17.3,12.1,17.3,12.2,17.3L12.2,17.3z M21.3,3.5L21.3,3.5c-0.2-0.1-0.5-0.1-0.8,0C20.5,3.5,20.8,3.5,21.3,3.5L21.3,3.5z
	 M20.1,20.6c-0.9,0-1.7,0.1-2.4,0c-1.5-0.1-1-0.1-2.2-0.2c-1.7-0.1-3.2-0.3-3.2-0.3s1.4,0.4,2.2,0.5c2.5,0.2,4.7,0.1,6,0
	c0.2,0,0.5,0,0.8,0v-0.2C20.9,20.4,20.4,20.5,20.1,20.6L20.1,20.6L20.1,20.6z M14.9,9.1c-0.1,0-0.8-0.1-1.3,0l1,0.1
	c-0.5,0.2-0.8,0.2-0.8,0.2s0.4,0.3,0.8,0.3c0,0,0.9-1,2.1-1.1c1.1,0,1.4,0.7,1.4,0.7S17.5,8.9,16.7,9C15.9,9,15,9.6,15,9.6
	s0.4,0,0.6,0.1c0.2,0.2,0.9,0.4,1.4,0.3c0.5-0.1,1.1-0.3,1.2-0.1C18,10,17.6,10.4,17,10.4c0,0,0.4,0,0.9,0c0.3,0,1-0.1,1.1-0.1
	c0,0-0.3-0.1-0.6-0.1c-0.1,0,0.1-0.1,0.2-0.1c0,0,0,0,0,0c0.2,0,0.7-0.1,0.8-0.1c0,0-0.2-0.1-0.6-0.1c-0.1,0,0-0.2,0.2-0.2
	c0.2,0,0.6,0,0.7,0c0,0-0.2-0.1-0.6-0.1c-0.1,0-0.3-0.2-0.2-0.2c0.4,0,1,0,1,0c-0.2-0.1-0.7-0.1-1-0.1c-0.1,0-0.1-0.2,0.1-0.2
	c0.2,0,0.6,0,0.6,0c-0.2-0.1-0.3-0.1-0.5-0.2c-0.2-0.1,0-0.1,0.1-0.1c0.1,0,0.1,0,0.2,0c-0.4-0.1-1-0.6-1.9-0.6C17.4,8,17,8,16.8,8
	c-0.4,0-0.8,0-1.6,0.1c0,0,2,0,2.4,0.1c0.1,0.1,0.1,0.2,0,0.2l-0.1,0c-0.2,0-0.4,0-0.6,0c-0.6,0-1.6-0.1-2.5,0.1c0,0,0.7,0,1.5,0
	c-0.2,0.1-0.3,0.1-0.4,0.2c-0.2,0-0.7-0.1-1.5,0l1.2,0.1C15.1,8.9,15,8.9,15,9C14.9,9,14.9,9,14.9,9.1L14.9,9.1z M15.8,9.7
	c0,0,0.1-0.1,0.3-0.2c0.1,0,0.2,0,0.2,0s0,0.2-0.2,0.2c0.3,0.3,1,0.2,1,0.2S16.4,10.1,15.8,9.7L15.8,9.7z M17.2,9.8
	c-0.1,0-0.1-0.1-0.1-0.1s0-0.1,0.1-0.1s0.2,0.1,0.2,0.1S17.3,9.8,17.2,9.8L17.2,9.8z M19.6,5.8c0,0,0.8,0,1.7,0.2V5.9
	C20.9,5.8,20.4,5.8,19.6,5.8z M20.7,9.8c0,0,0.3,0,0.6,0.1V9.8C21.2,9.8,21,9.8,20.7,9.8L20.7,9.8z M11.5,13.2c0,0,0.3-0.6-0.3-1.1
	c-0.5-0.4-0.7-0.8-0.7-0.8s0.1,0.4,0.5,0.8c0.3,0.3,0.3,0.4,0.1,0.5c-0.1,0.1-0.1-0.3-0.5-0.6c-0.2-0.1-0.4-0.4-0.5-0.6
	c0,0,0.1,0.5,0.4,0.8c0.3,0.2,0.4,0.5,0.4,0.6c0,0-0.4-0.1-0.6-0.2C10.4,12.6,10.8,13.2,11.5,13.2L11.5,13.2z M21.3,19.9v-0.2
	c-1.6,0-3.3,0.1-3.3,0.1C19.4,19.9,20.5,19.9,21.3,19.9z M21.3,6.5V6.4c-0.3,0-0.6,0-1,0C20.3,6.3,20.8,6.4,21.3,6.5z M21.3,8.4V8.3
	c-0.2,0-0.5,0-0.8,0C20.5,8.3,20.8,8.3,21.3,8.4L21.3,8.4z M20.6,10.6c0,0,0.3,0,0.7,0.2v-0.2C21.1,10.5,20.9,10.5,20.6,10.6
	L20.6,10.6z M20.7,11.3c0,0,0.3,0,0.7,0.2v-0.2C21.1,11.3,20.9,11.3,20.7,11.3L20.7,11.3z M20.7,10.2c0,0,0.3,0,0.7,0.2v-0.2
	C21.1,10.2,20.9,10.2,20.7,10.2z M7.5,4.5c0.2,0.3,0,0.6,0,0.6C7.7,4.9,7.9,5,7.9,5C7.7,5.1,7.6,5.2,7.5,5.8c-0.2,0.5-0.7,1-0.7,1
	c0.8-0.5,0.9-1.2,1.1-1.5C8,5,8.4,4.9,8.4,4.9c0,0.2,0.2,0.5,0.2,0.5c-0.2-0.4,0.3-1,0.3-1C8.1,5.2,7.5,4.5,7.5,4.5L7.5,4.5z
	 M9.1,2.9C8.8,3.5,8.3,4.1,7.7,3.7c0,0,0.5,0.6,1.2-0.1c0.6-0.8,0.5-0.9,0.9-1c0,0-0.3,0.5,0,1.3c0,0-0.2-0.9,0.4-1.5
	C10.1,2.3,9.4,2.2,9.1,2.9L9.1,2.9z M12.2,1.8c0,0-0.4,1.1-0.8,1.5S10.3,4,10.6,4.6c0,0,0-0.4,0.2-0.5c0,0-0.1,0.4,0.2,0.6
	c0,0-0.1-0.6,0.2-0.9C11.5,3.5,12.2,2.8,12.2,1.8L12.2,1.8z M21.3,1.9c-0.3,0.5-1,1-1.9,0.9c-0.4,0-1.2-0.3-1.3-0.5
	c0,0,0.3,0.4,0.8,0.5c0.5,0.1,0.5,0.4,0,0.4c-0.5,0-0.7-0.2-1.1-0.2c-0.4,0-0.6,0.3-1.1,0.2c-0.4,0-1-0.4-1.1-1c0,0-1.1,0.1-1.6-0.7
	H14C14,2,14.3,2.8,15,3.1c0,0-0.3-0.3,0.1-0.5c0,0,0.6,0.6,1.1,0.7c0,0-0.8,0.6-1.7-0.2c0,0,0.3,0.6,0.9,0.7c0,0-1.3,0.4-1.6-0.8
	c0,0-0.1,1.3-0.8,1.4c0,0,0-0.3,0.2-0.5c0.2-0.2,0.6-1.1,0.7-2.3h0c-0.1,0.6-0.5,2-0.8,2.3c-0.4,0.4-0.6,0.8-0.5,1.2
	c0,0-0.2-0.2-0.2-0.6c0,0-0.2,0.6-0.1,1c0,0-0.4-0.5-0.3-1.1c0.1-0.5,0.7-0.5,0.9-1.3c0,0-0.3,0.6-0.7,0.7c0,0,0.7-0.7,0.7-1.7
	c0,0-0.2,0.9-1,1.6s-0.4,1.2-0.4,1.2s0-0.5,0.3-0.7c0,0-0.2,0.8,0.2,1.3c0,0-0.3-0.2-0.5-0.4c0,0,0,1.4,2.1,0.9c0,0-1.3,0.7-2.5-0.2
	C10.1,5,9.9,4.5,10,4c0,0-0.1,0.3-0.4,0.5c-0.3,0.2-1,0.7-0.1,1.4c0,0-0.3-0.4-0.2-0.7c0,0,0.2,0.5,0.6,0.8c0,0-0.4-0.6-0.3-0.9
	c0,0,0.4,0.9,0.9,1.1c0,0-0.3,0-0.6-0.2c0,0,0.2,0.3,0.5,0.5c0,0-1,0.4-1.8-1c0,0-0.3,0.1-0.4,0.3c0,0,0.3-0.2,0.4,0
	c0.1,0.2,0.1,0.4-0.1,0.6C8.4,6.6,7.8,6.7,7.3,7.4C7,7.7,6.7,8.2,6.8,9c0.1,0.7,0.4,1.4,0.9,1.8c0,0-1.1-0.2-1.7-1.5
	C5.7,8.5,5.7,7.6,6.6,6.5c0,0-0.8-0.4,0.7-2.1c0,0-0.2-0.9,0.9-1.1c0,0-0.2-0.8,0.8-1.7h-1C8.3,1.8,8.2,2,8.2,2.1l0,0
	C8,2,7.7,1.8,7.3,1.5H5.9C6,1.6,6.1,1.8,6.2,2.1C6.1,2,5.9,2,5.8,1.9c0-0.1-0.1-0.3-0.2-0.4H5.4c0,0.1,0.1,0.1,0.1,0.3
	C5.3,1.7,5.2,1.7,5.1,1.6c0,0,0,0,0-0.1H3.7C3.4,1.8,3,2,2.7,2.1C2.5,2.1,2.3,2.1,2.1,2c0.4-0.2,0.7-0.4,0.9-0.5H2.7
	C2.5,1.7,2.2,1.9,1.9,2c0,0,0,0-0.1,0c-0.2,0-0.4-0.1-0.6-0.1c0.3-0.1,0.6-0.2,0.8-0.3H1.7C1.5,1.7,1.3,1.8,1.1,1.8
	c-0.2,0-0.5-0.1-0.7-0.1c0.2,0,0.4-0.1,0.6-0.2H0.4v0.6c0.1,0,0.3,0,0.6,0C0.9,2.3,0.7,2.5,0.4,2.6v0.3c0.4-0.2,0.9-0.4,1.1-0.6
	c0.1,0,0.3,0,0.5,0.1C1.6,2.7,0.9,3,0.6,3.1c-0.1,0-0.1,0-0.2,0V4c0.1-0.1,0.1-0.1,0.2-0.2l0.4,0l0.2,0l0,0l0,0c0,0-0.3,0.4-0.8,0.8
	v0.2c0.3-0.2,0.7-0.6,1.1-1l0,0l0,0l0.6,0l0,0l0,0c0,0-0.6,0.8-1.7,1.3v1.2c0.3-0.3,0.4-0.5,0.4-0.6l0.2,0C0.8,5.9,0.6,6.2,0.4,6.3
	v0.3c0.6,0,1.1,0,1.6,0.3C1.8,7,1.6,7,1.4,7.1C1.2,7,0.9,6.8,0.4,6.7v0.2C0.6,7,0.7,7.1,0.9,7.2c-0.2,0-0.3,0.1-0.5,0.1v0.2
	c0.1,0,0.3,0,0.4-0.1l0,0c0,0-0.1,0.4-0.4,0.8v0.3l0.1,0c0,0,0.5-0.4,0.7-1.1l0,0c0.1,0,0.3,0,0.4,0l0,0c0,0-0.2,0.9-0.7,1.2
	L0.4,8.5v0.1c0.1,0,0.1,0,0.2,0c0.5,0,1.3-0.1,2-0.1C1.9,8.6,1.3,8.7,0.7,8.8L0.4,8.9c0,0,0,0,0,0v0.5C0.5,9.2,0.6,9,0.6,9
	c0.2,0,0.3-0.1,0.5-0.1c-0.2,0.4-0.5,0.8-0.7,1v0.2c0.6-0.4,1-1.1,1.1-1.3c0.2,0,0.3,0,0.5-0.1C1.6,9.4,1.1,10,0.9,10.2
	c-0.2,0-0.3,0-0.5,0.1v0.4c0.1-0.1,0.2-0.2,0.2-0.3c0,0,0.1,0,0.2,0c-0.1,0.2-0.2,0.4-0.3,0.4l0,0v0.4c0.1,0,0.2,0,0.3,0
	c-0.1,0.2-0.2,0.3-0.3,0.4v0.1c0.3-0.2,0.4-0.5,0.5-0.6c0.1,0,0.3,0,0.4-0.1c-0.2,0.5-0.6,0.7-0.7,0.9c0,0-0.1,0-0.2,0v0.7
	c0.1-0.1,0.1-0.1,0.2-0.2c0,0,0,0,0.1,0l0.4-0.1c-0.1,0.2-0.3,0.4-0.6,0.6c0,0,0,0,0,0v0.2c0,0,0,0,0,0c0.4,0.1,0.9,0.1,1.2,0.2
	c0.1,0,0.3,0,0.5,0l-0.3,0.1l-0.2,0.1l-0.2,0.1c0.2,0,0.4,0,0.6,0c0.2,0,0.4,0,0.5,0c-0.1,0-0.1,0-0.2,0.1c-0.2,0-0.3,0.1-0.4,0.1
	c-0.1,0-0.1,0-0.2,0.1c-0.6,0.2-0.9,0.3-0.9,0.3c0.2,0,0.6-0.2,1.2-0.3c-0.1,0.2-0.4,0.4-0.7,0.6c-0.1,0-0.2,0-0.3,0
	c-0.5-0.1-0.2-0.5,0-0.7c0,0-0.5,0.3-0.4,0.6c0.1,0.4,1.1,0.4,1.1,0.4s-0.8,0.4,0.5,0.6c0.4-0.2,0.6-0.6,0.7-0.6
	c0.1,0,0,0.2-0.3,0.6c0.2,0,0.4,0,0.6,0c0,0,0.4-0.2,0.8-0.8l0.1,0c0,0-0.1,0.5-0.5,0.8c0.1,0,0.2,0,0.3,0l0,0l0,0
	c-0.1,0.1-0.3,0.2-0.4,0.3c-0.1,0-0.1,0.1-0.2,0.1c-0.2,0.1-0.3,0.2-0.3,0.3C3,16,3,16,3,16c0,0,0.1,0,0.1-0.1
	c0.1,0,0.1-0.1,0.2-0.2c0.2,0,0.5-0.1,0.7-0.1c-0.1,0.1-0.3,0.1-0.4,0.2c-0.1,0-0.2,0.1-0.3,0.1c-0.3,0.1-0.5,0.3-0.6,0.4
	c0-0.1,0-0.1,0-0.1c-0.2,0.2-0.4,0.5,0.1,0.7c0,0,0.1-0.1,0.3-0.2l0,0c0.5-0.3,0.7-0.7,0.8-0.8l0.4-0.1c-0.2,0.5-0.6,0.8-0.8,1l0,0
	c0,0,0,0,0,0l0,0C3.3,17,3.2,17,3.2,17.1c0.6,0.1,1.1,0,1.7-0.1c0,0,0.1,0,0.1,0c0,0,0,0,0.1,0c-0.1,0.1-0.3,0.2-0.4,0.4
	c-0.1,0.1-0.1,0.1-0.2,0.2c-0.1,0.1-0.3,0.3-0.4,0.5c0,0-0.1,0.1-0.1,0.1l0,0l0,0l0,0c0,0.1-0.1,0.1-0.1,0.2c0,0,0.1-0.1,0.2-0.2
	c0.2-0.1,0.6-0.2,0.9-0.2c0,0-0.1,0.1-0.1,0.1c-0.1,0.1-0.2,0.1-0.3,0.2c-0.6,0.5-0.8,0.8-0.9,0.8c0-0.1,0-0.2,0-0.3
	c0,0,0-0.1,0-0.1c-0.4,0.6,0,0.9,0.6,0.9c0,0,0.1-0.1,0.1-0.1c0,0,0.1-0.1,0.1-0.1c0,0,0,0,0,0l0,0c0.1-0.2,0.4-0.6,0.4-1.1
	C5,18,5.1,17.9,5.2,17.8c0,0.2-0.1,0.7-0.4,1.2c0,0,0,0,0,0l0,0c0,0-0.1,0.1-0.1,0.1c-0.1,0.1-0.1,0.2-0.2,0.2c0.1,0,0.1,0,0.2,0
	c0.1,0,0.3-0.1,0.5-0.2C5.1,19.3,5,19.4,5,19.5c0,0,0,0,0,0c-0.1,0.1-0.1,0.3-0.2,0.4c0,0,0.1-0.2,0.3-0.5c0.2-0.1,0.5-0.2,0.7-0.1
	l-0.3,0.3l-0.2,0.2c0,0,0,0,0,0c0,0-0.5,0.5-0.6,0.7c0-0.1,0-0.2,0-0.4c0,0,0,0,0,0c0,0,0,0,0,0c-0.3,0.5,0.1,0.8,0.6,0.8
	c0.2,0,0.5-0.1,0.9-0.3c-0.4,0.9-0.3,1.3-0.3,1.3c0-0.3,0.1-0.5,0.2-0.8c0,0,0-0.1,0.1-0.1c0.2-0.1,0.5-0.3,0.8-0.2
	c0,0-0.1,0.1-0.1,0.1c-0.1,0.1-0.2,0.2-0.3,0.3c-0.1,0.1-0.1,0.1-0.2,0.2c-0.2,0.2-0.3,0.4-0.5,0.7c0,0,0.2-0.2,0.5-0.5
	c0,0.1,0,0.4-0.1,0.7c-0.1,0-0.2,0-0.3,0c0,0,0.4,0.2,0.9,0c0,0-0.1,0.1-0.2,0.3h0.9l0,0c0,0,0,0,0,0h0.2c0-0.1,0-0.2,0-0.2
	C8,22.2,8.1,22.1,8.2,22c0,0.2,0,0.4,0,0.5h0.1c0-0.3,0-0.6,0-0.7c0.1-0.1,0.2-0.2,0.3-0.3c0.1,0.4,0.1,0.7,0,1h0.1
	c0.1-0.5,0-1,0-1.3L9.1,21c0.1,0.6,0,1.2,0,1.5l0,0h0.6c0-0.1-0.1-0.1-0.1-0.1l0.3-0.3c0,0.1,0.1,0.2,0.1,0.4h0.3
	c-0.1-0.4-0.2-0.6-0.2-0.6l0.3-0.3c0.1,0.3,0.2,0.6,0.2,0.9h0.2c0-0.7-0.2-1.1-0.2-1.1L11,21c0.2,0.4,0.2,1,0.2,1.5h0.9v0
	c0,0-0.1-1.3-0.2-1.7c0,0-0.2-0.7-0.3-1.4c-0.1-0.5-0.7-0.9-1-0.9c-0.4-0.1-0.8-0.3-0.9-0.8c0,0.2,0.2,0.4,0.7,0.5
	c0.8,0.1,1,0.6,1,0.6s-0.2-0.7-0.9-0.8c-0.6-0.2-0.9-0.3-0.9-0.6c0.1-0.4,0.3-0.4,0.3-0.4s-0.2,0.4,0.5,0.6c0.7,0.2,0.8,0.6,0.8,0.6
	s-0.3-2.9-0.2-4.8c0,0-0.7-0.2-1.1-1c0,0,0.2,1,0.7,1.2c0.3,0.1-0.6,0.1-1-0.2c0,0,0.7,0.7,0.6,1.4C10,14.1,9.6,14,9.6,14
	s0.7,1.1-0.1,1.6c0,0,0.5-0.6,0.1-1c0,0,0.1,0.8-0.6,0.8c-0.7,0-1.3-1-0.1-2c0,0-0.5,0.2-0.7,0.4c-0.2,0.2-0.7,0.3-0.8,0.1
	c0,0,0,0,0,0c0,0,0,0,0,0c0-0.1,0-0.2,0-0.2c0-0.2,0.2-0.9,0.6-1.6c0.3-0.5,0-0.9-0.2-1.1c0.4,0.1,0.7,0,0.7,0s0.1,0.6-0.1,1
	c-0.2,0.4-0.5,0.9-0.5,1.4c0,0,0.3-0.7,0.6-1c0.3-0.3,0.3-0.5,0.3-0.5s0.1,0.5-0.1,0.8c-0.3,0.3-0.3,0.8-0.3,0.8s0.2-0.4,0.4-0.6
	c0.3-0.2,0.3-0.5,0.3-0.5c0.2,0.5,0.5,0.8,0.5,0.8c-0.1-0.1-0.2-0.5-0.2-0.8c0-0.3-0.2-0.9-0.2-0.9c0.3,0,0.7,0.5,0.7,0.5
	c-0.3-1.3,0.5-0.7,0.5-0.7c-0.2-0.3-0.2-0.7-0.1-0.9c0.1-0.2,0.3-0.6,0.3-0.2c-0.1,0.4,0.2,0.9,0.2,0.9c-0.1-0.5,0-0.8,0.2-1.1
	c0,0-0.1,0.9,0.5,1.3c0.6,0.5,0.5,1.1,0.5,1.1c0.2-0.5,0-0.8-0.2-1l0.4,0c-0.2,0-0.4-0.1-0.6-0.1c-0.1-0.1-0.1-0.1-0.2-0.2
	c0.3,0,0.6,0,0.6,0c-0.3-0.1-0.5-0.1-0.7-0.2c0-0.1-0.1-0.1-0.1-0.2c0.4,0,0.7,0,0.7,0c-0.3-0.1-0.6-0.2-0.8-0.2c0,0,0-0.1,0-0.2
	c0.5,0,0.8-0.1,0.8-0.1c-0.3-0.1-0.5-0.1-0.7-0.2c0-0.1,0-0.1,0-0.2c0.5,0,0.9-0.1,0.9-0.1c-0.3-0.1-0.6-0.1-0.8-0.2
	c0.1-0.1,0.1-0.1,0.2-0.2c0.6,0,1,0,1,0c-0.4-0.1-0.6-0.1-0.9-0.2c0-0.1,0.1-0.1,0.1-0.2c0.5,0,0.9,0,0.9,0
	c-0.4-0.1-0.7-0.1-0.9-0.1c0,0,0,0,0,0c0-0.1,0-0.2,0.1-0.2c0.5,0,0.9-0.1,0.9-0.1c-0.3,0-0.6-0.1-0.9-0.1c0,0,0-0.1-0.1-0.2
	c0,0,0,0,0-0.1C12.3,8,12.8,8,12.8,8c-0.4-0.1-0.7-0.1-1-0.1c0.1-0.1,0.2-0.1,0.3-0.2c0.5-0.1,0.9-0.1,0.9-0.1
	c-0.3,0-0.5-0.1-0.7-0.1c0-0.1,0-0.2,0-0.2c0.5-0.1,0.9-0.1,0.9-0.1c-0.2,0-0.4-0.1-0.6-0.1c0.2-0.1,0.4-0.2,0.5-0.3
	c0,0,0.1-0.1,0.1-0.1C14,6.4,14.3,6,14.5,5.5c0.3-0.7,0.8-1.1,1.2-1.2c-0.4,0-0.9,0.2-1.1,0.4c-0.6,0.7-1.6,0.3-1.6-0.3
	c0,0,0.3,0.5,1,0.4c0,0-0.6-0.1-0.8-0.6c0,0,0.4,0.3,0.7,0.3c0,0-0.6-0.2-0.5-0.6c0,0,0.3,0.4,0.8,0.4c0.5,0,0.7-0.2,1.1-0.2
	c0.4,0,0.7,0.1,1,0.1c1.4-0.1,2.8-0.8,2.8-0.8c1.1,0,1.8-0.5,2.2-1L21.3,1.9C21.3,1.8,21.3,1.9,21.3,1.9L21.3,1.9z M3,16.8
	C3,16.8,3,16.8,3,16.8c-0.2-0.1-0.3-0.2-0.3-0.3l0.9-0.4C3.5,16.4,3.2,16.6,3,16.8L3,16.8z M3.6,19c0.2-0.2,0.4-0.3,0.7-0.5
	c0,0.1-0.1,0.4-0.4,0.7C3.7,19.2,3.6,19.1,3.6,19L3.6,19z M4.3,19.2c-0.1,0-0.3,0-0.4,0c0.1-0.2,0.4-0.5,0.4-0.8
	c0.1-0.1,0.2-0.1,0.3-0.2C4.7,18.4,4.6,18.8,4.3,19.2L4.3,19.2z M10.3,21.3l-0.3,0.3c0.2-0.6,0.1-1.4,0.1-1.7l0.2-0.2
	C10.6,20.5,10.3,21.3,10.3,21.3L10.3,21.3z M9.8,18.6c0.1,0.1,0.2,0.1,0.3,0.2c0,0.2,0.1,0.5,0,0.8c-0.1,0.1-0.3,0.2-0.4,0.4
	C9.8,19.6,9.9,19.1,9.8,18.6z M9.8,20.2L10,20c0.1,0.6,0,1.4,0,1.6l-0.3,0.3C9.8,21.3,9.8,20.6,9.8,20.2L9.8,20.2z M6.7,5
	c0,0-0.4,0.5-1,0.6c-0.1,0-0.2,0-0.3,0l-0.1,0l-0.1,0c0,0,0.1,0,0.2-0.1c0,0,0.1,0,0.1-0.1C5.7,5.4,6.1,5.3,6.2,5c0,0,0.1,0,0.3,0
	S6.7,4.9,6.7,5L6.7,5z M4.3,9.8L4,9.9c0,0,0.7-0.3,1.2-1l0.3-0.2C5.5,8.7,5.1,9.5,4.3,9.8L4.3,9.8z M5.5,10.5L5.5,10.5L5.5,10.5
	L5.5,10.5L5.5,10.5z M5.9,14.1c0,0,0,0.1-0.1,0.2c0,0,0,0,0,0.1l0,0c0,0,0,0,0,0c0,0,0,0,0,0.1l0,0c0,0,0,0,0,0c0,0,0,0-0.1,0.1l0,0
	c0,0,0,0,0,0c0,0,0,0,0,0c0,0,0,0-0.1,0c0,0,0,0,0,0c0,0,0,0-0.1,0c0,0,0,0,0,0l0,0c0,0-0.1,0-0.1,0.1l0,0c0,0,0,0,0,0l0,0
	c0,0,0,0,0,0l0,0l0,0c0,0,0,0,0,0c0-0.1,0.1-0.1,0.1-0.2c0-0.1,0.1-0.2,0.1-0.3L5.9,14.1L5.9,14.1L5.9,14.1L5.9,14.1z M6,14.9
	L6,14.9C6,14.9,6,14.9,6,14.9C6,14.9,6,14.9,6,14.9z M5.2,14.6c0,0.1-0.1,0.2-0.1,0.2l0,0l0,0c0,0,0,0,0,0c0,0,0,0,0,0c0,0,0,0,0,0
	l0,0c0,0,0,0,0,0c0,0,0,0,0,0c0,0,0,0,0,0l-0.1,0l-0.1,0l-0.1,0h0c0,0,0,0,0,0l0,0l0,0l0,0l0,0c0,0,0-0.1,0.1-0.1c0,0,0-0.1,0.1-0.1
	C4.9,14.7,5,14.5,5,14.3l0.3-0.1C5.3,14.3,5.3,14.4,5.2,14.6z M5.5,14c-0.2,0-0.4,0.1-0.6,0.1c0.2-0.2,0.5-0.5,0.7-0.9
	c0.1,0,0.2,0.1,0.3,0.1C5.8,13.4,5.7,13.7,5.5,14L5.5,14z M4.8,14.1c-0.2,0-0.4,0.1-0.6,0.1c0.2-0.2,0.6-0.5,0.9-1
	c0.1,0,0.2,0,0.3,0C5.3,13.3,5.1,13.7,4.8,14.1L4.8,14.1z M4.3,13.1C4.5,13,4.8,12.8,5,12.5c0,0.1,0.1,0.2,0.2,0.3
	c0,0,0.1,0.1,0.1,0.1C5.1,13,4.8,13,4.3,13.1L4.3,13.1z M4.6,11.8c-0.1,0.2-0.5,0.9-1.2,1.4c-0.2,0-0.4,0-0.6,0
	c0.2-0.1,1-0.7,1.4-1.4C4.4,11.8,4.5,11.8,4.6,11.8L4.6,11.8z M4.4,11.6c0.2-0.1,0.3-0.3,0.5-0.5c0,0.1-0.1,0.3-0.1,0.4
	C4.8,11.6,4.6,11.6,4.4,11.6z M4.9,11.8c0,0.1,0,0.3,0,0.4c-0.1,0.3-0.3,0.6-0.7,0.9c-0.2,0-0.4,0-0.6,0.1C3.8,13,4.5,12.5,4.9,11.8
	L4.9,11.8z M4.3,11.6l-0.5,0c0.5-0.3,0.9-1,1-1.1c0.1,0,0.3,0,0.4,0C4.9,11.1,4.5,11.5,4.3,11.6L4.3,11.6z M2.9,10c0,0-0.1,0-0.3,0
	c0.7-0.4,1.2-1,1.3-1.3C4,8.8,4.1,8.9,4.2,9C4.1,9.2,3.5,9.9,2.9,10L2.9,10z M4.5,9l0.4-0.1c0,0-0.6,0.8-1.4,1l-0.1,0
	C3.4,10,4,9.8,4.5,9L4.5,9z M3,10.1c0,0,0.1,0,0.1,0c-0.1,0.3-0.3,0.4-0.3,0.4s-0.2,0-0.2,0.1C2.8,10.5,3,10.2,3,10.1z M2.5,10.6
	c0,0-0.1,0-0.2,0c0.2-0.1,0.3-0.4,0.3-0.5c0,0,0.1,0,0.2,0C2.7,10.5,2.5,10.6,2.5,10.6z M3.8,8.4l-0.4,0c0,0,0.8-0.3,1.2-1.1
	c0.2,0,0.3,0,0.5,0l0,0C5,7.4,4.4,8.3,3.8,8.4L3.8,8.4z M3.5,5c0,0-0.1,0-0.1,0l-0.1,0L3.1,5l0.1,0c0,0,0.5-0.2,0.9-0.6l0,0
	c0,0,0.1,0,0.3,0c0.2,0,0.3,0,0.3,0C4.6,4.4,4,4.9,3.5,5L3.5,5z M4.9,4.6c0.2,0,0.2,0,0.2,0C4.9,4.8,4.3,5.1,3.9,5.2c0,0,0,0-0.1,0
	l0,0L3.6,5.2l0.1,0c0,0,0.5-0.1,0.9-0.5l0,0C4.6,4.6,4.6,4.6,4.9,4.6L4.9,4.6z M2.8,5l-0.3,0c0,0,0.6-0.3,1.1-0.7l0,0
	c0,0,0.1,0,0.2,0c0.2,0,0.3-0.1,0.3-0.1C4.1,4.1,3.5,4.8,2.8,5z M2.8,5.2c0.1,0,0.2,0,0.2,0C2.8,5.7,2.5,6,2.4,6.2
	c-0.1,0-0.1,0-0.2,0C2.7,5.7,2.8,5.3,2.8,5.2L2.8,5.2z M3.4,5.4c0,0,0.1,0,0.2,0.1C3.3,5.8,3.1,6,2.9,6.2c-0.1,0-0.1,0-0.2,0
	C3.1,5.9,3.3,5.6,3.4,5.4z M3.8,5.6c0,0,0.1,0,0.1,0.1C3.9,5.9,3.7,6.1,3.5,6.3c-0.1,0-0.1,0-0.2,0C3.6,6,3.8,5.8,3.8,5.6L3.8,5.6z
	 M4.3,5.8c0.1,0,0.1,0,0.2,0C4.3,6.1,4.2,6.3,4,6.4c-0.1,0-0.1,0-0.2,0C4.1,6.1,4.2,5.9,4.3,5.8L4.3,5.8z M4.2,6.7
	c0,0,0.1,0,0.1,0.1c0,0,0,0,0,0C4.4,6.8,4.5,7,4.5,7C4.5,7,4.4,7,4.3,7c0-0.1-0.1-0.2-0.2-0.3C4,6.7,3.9,6.6,3.9,6.6
	C4,6.6,4.1,6.7,4.2,6.7L4.2,6.7z M4.5,6.6c0,0-0.1,0-0.1-0.1c0.3-0.2,0.4-0.4,0.5-0.6c0.1,0,0.1,0,0.2,0C4.9,6.2,4.7,6.4,4.5,6.6z
	 M5,5.6C5,5.6,4.9,5.6,5,5.6l-0.4,0c0,0,0,0,0,0c0.1,0,0.6-0.2,1-0.6l0,0h0c0.1,0,0.3-0.1,0.4-0.1l0.1-0.1L6.1,4.8
	C6,5,5.5,5.4,5,5.6L5,5.6z M4.3,5.5L4.1,5.4l0.1,0c0,0,0.5-0.1,0.9-0.6l0,0c0,0,0.1,0,0.2,0c0.2,0,0.3-0.1,0.3-0.1
	C5.5,4.8,4.9,5.4,4.3,5.5L4.3,5.5z M5.2,4.3C5.5,4.2,5.9,4,6.1,3.9c0.1-0.1,0.2-0.1,0.2-0.2c0,0,0.1,0,0.1,0.1c0,0,0,0-0.1,0.1
	C6,4.2,5.5,4.3,5.3,4.4C5.3,4.4,5.2,4.4,5.2,4.3L5.2,4.3z M6,3.6C5.6,4,5.3,4.2,5,4.2c0,0-0.1-0.1-0.1-0.1C5.2,4,5.5,3.8,5.7,3.7
	C5.8,3.6,5.9,3.6,6,3.6C6,3.5,6,3.6,6,3.6L6,3.6z M5.6,3.5C5.3,3.8,5,3.9,4.8,4c0,0-0.1-0.1-0.1-0.1c0.3-0.1,0.5-0.3,0.7-0.4
	c0.1-0.1,0.2-0.1,0.2-0.2C5.6,3.4,5.7,3.4,5.6,3.5C5.7,3.4,5.7,3.4,5.6,3.5L5.6,3.5z M5.2,3.3C5,3.5,4.7,3.7,4.5,3.8
	c0,0-0.1-0.1-0.1-0.1c0.2-0.1,0.3-0.2,0.4-0.3C4.9,3.3,5,3.3,5,3.2l0.1-0.1C5.2,3.2,5.2,3.2,5.2,3.3C5.3,3.3,5.3,3.3,5.2,3.3
	L5.2,3.3z M4.7,3.1C4.7,3.1,4.7,3.2,4.7,3.1C4.5,3.3,4.4,3.4,4.2,3.5C4.2,3.5,4.1,3.4,4,3.4c0.1-0.1,0.2-0.2,0.3-0.2
	c0.1-0.1,0.2-0.1,0.2-0.1L4.6,3C4.7,3,4.8,3,4.7,3.1L4.7,3.1L4.7,3.1z M4.3,2.9c0,0-0.1,0.1-0.2,0.1C4,3.2,3.8,3.3,3.7,3.4
	c0,0-0.1,0-0.2,0c0,0,0,0-0.1,0h0C3.6,3.3,4,2.9,4.1,2.8C4.2,2.8,4.3,2.8,4.3,2.9L4.3,2.9L4.3,2.9z M3.1,3.3c-0.1,0-0.2,0-0.3,0h0
	C3,3.3,3.4,2.9,3.6,2.6c0.1,0,0.1,0,0.2,0.1C3.7,2.9,3.3,3.2,3.1,3.3L3.1,3.3z M3.2,3.7C3.2,3.7,3.2,3.7,3.2,3.7L3.2,3.7l0.3-0.1
	l0.3,0l0,0.1c0,0,0,0-0.1,0.1c0,0-0.1,0.1-0.1,0.1C3.3,4.1,2.6,4.7,1.6,5l-0.2,0C1.4,5.1,2.4,4.7,3.2,3.7L3.2,3.7z M2.2,5.2
	c0.1,0,0.1,0,0.2,0C2.2,5.7,1.9,6,1.7,6.2c-0.1,0-0.2,0-0.3,0C2,5.8,2.2,5.4,2.2,5.2C2.2,5.2,2.2,5.2,2.2,5.2L2.2,5.2z M2.1,6.4
	c0.1,0,0.2,0,0.2,0c0.1,0,0.2,0,0.3,0c0,0,0.1,0,0.1,0C3.3,6.6,3.5,6.9,3.5,7c-0.1,0-0.1,0-0.2,0l-0.2,0C3,6.6,2.5,6.5,2.1,6.4
	L2.1,6.4c-0.1,0-0.2,0-0.2,0C2,6.4,2.1,6.4,2.1,6.4L2.1,6.4z M3.3,6.6L3.3,6.6C3.2,6.5,3.2,6.5,3.2,6.5C3.2,6.5,3.3,6.5,3.3,6.6
	c0-0.1,0.1,0,0.2,0c0,0,0.1,0,0.1,0.1c0,0,0.1,0.1,0.1,0.1C4,6.8,4,6.9,4,7C4,7,3.9,7,3.8,7C3.7,6.8,3.5,6.6,3.3,6.6L3.3,6.6z
	 M3.9,7.2c0.1,0,0.3,0,0.4,0C4.2,7.4,4,8.1,3.2,8.4l-0.3,0L3,8.3C3,8.3,3.6,8,3.9,7.2L3.9,7.2z M3.2,8.6c0.2,0,0.3,0,0.4,0l0.1,0
	C3.2,9.4,2.7,9.8,2.4,10c-0.2,0-0.4,0-0.7,0C2.5,9.6,3,8.9,3.2,8.6L3.2,8.6z M1.9,10.2l0.2,0c-0.1,0.3-0.3,0.5-0.5,0.5l-0.2,0
	C1.8,10.5,1.9,10.2,1.9,10.2L1.9,10.2z M2.3,10.2l0.2,0c-0.1,0.4-0.4,0.5-0.4,0.5c0,0-0.1,0-0.2,0C2.2,10.6,2.3,10.2,2.3,10.2z
	 M2.1,10.9l0.4-0.1c-0.2,0.5-0.5,0.8-0.7,1c-0.2,0-0.4,0-0.5,0C1.7,11.6,2,11.1,2.1,10.9z M2.8,10.8l0.4-0.1c-0.2,0.5-0.6,0.9-0.8,1
	c-0.2,0-0.3,0-0.5,0C2.4,11.4,2.7,11,2.8,10.8L2.8,10.8z M3.4,10.7l0.4-0.1h0c-0.3,0.6-0.7,0.9-0.9,1.1l-0.5,0
	C3,11.3,3.3,10.9,3.4,10.7L3.4,10.7z M4.1,10.6l0.1,0l0.3,0c-0.3,0.6-0.7,1-0.8,1.1c-0.2,0-0.4,0-0.6,0C3.6,11.4,4,10.8,4.1,10.6
	L4.1,10.6z M4.2,8.5L4,8.5c0,0,0.8-0.3,1.3-1.1c0.2,0,0.3,0,0.4,0.1l0,0C5.7,7.5,5,8.3,4.2,8.5L4.2,8.5z M5.9,4.5
	c-0.1,0-0.2,0-0.3,0C6,4.4,6.3,4.2,6.5,4C6.6,4,6.6,3.9,6.7,3.9L6.9,4C6.6,4.3,6.2,4.4,5.9,4.5L5.9,4.5z M7,1.9
	c0.4,0.3,0.6,0.8,0.5,1C7.4,2.8,7.3,2.7,7.2,2.7c0-0.1-0.1-0.5-0.3-0.8C6.9,1.9,7,1.9,7,1.9L7,1.9z M7.2,3.1
	C7.1,3.2,6.9,3.2,6.8,3.2c-0.5,0.1-0.9,0-1,0C5.8,3.1,5.6,3.1,5.5,3c0.7,0,1.2-0.1,1.4-0.2C7,3,7.1,3,7.2,3.1L7.2,3.1z M6.5,1.7
	c0.1,0.1,0.2,0.4,0.3,0.7C6.7,2.4,6.6,2.3,6.5,2.2c0-0.1-0.1-0.5-0.3-0.7C6.3,1.6,6.4,1.7,6.5,1.7L6.5,1.7z M6.3,2.5
	c0.1,0.1,0.2,0.1,0.3,0.2C6.2,2.9,5.7,3,5.3,3C5.2,2.9,5,2.8,4.9,2.8C5.6,2.8,6.1,2.6,6.3,2.5z M5.6,2.1C5.8,2.2,5.9,2.3,6,2.3
	C5.6,2.6,5,2.7,4.7,2.7c-0.1,0-0.3-0.1-0.4-0.1C5,2.5,5.4,2.2,5.6,2.1z M5.3,2C5,2.3,4.4,2.5,4.1,2.5C3.9,2.5,3.7,2.4,3.6,2.4
	c0.7-0.1,1.2-0.4,1.3-0.5C5,1.9,5.2,2,5.3,2L5.3,2z M4.1,1.6c0.2,0.1,0.3,0.1,0.5,0.2C4.2,2,3.7,2.2,3.4,2.3C3.2,2.3,3,2.2,2.9,2.2
	C3.5,2,3.9,1.7,4.1,1.6z M1,3.2c0.3-0.1,1.1-0.5,1.3-0.8c0.1,0,0.2,0,0.4,0.1C2.4,2.8,1.9,3.1,1.5,3.3C1.3,3.3,1.1,3.2,1,3.2L1,3.2z
	 M1.9,3.3c0.6-0.2,1-0.7,1.1-0.8c0.1,0,0.2,0,0.3,0.1c-0.2,0.2-0.6,0.6-1,0.8C2.2,3.4,2.1,3.3,1.9,3.3L1.9,3.3z M0.7,5.1l-0.2,0
	c0,0,1-0.5,1.9-1.5l0,0l0,0l0.3,0l0.3,0l0,0.1C2.9,3.6,2.2,4.6,0.7,5.1z M1.5,5.4L1.5,5.4c0.1-0.1,0.2-0.1,0.3-0.1
	C1.5,5.8,1.2,6.1,1,6.3c-0.1,0-0.1,0-0.2,0C1.3,5.8,1.5,5.4,1.5,5.4L1.5,5.4z M1,6.6C2.5,6.4,2.8,6.9,2.8,7C2.7,7,2.6,7,2.4,7h0
	C2,6.6,1,6.6,1,6.6L1,6.6z M1.4,8.4l-0.3,0l0.1-0.1c0,0,0.5-0.4,0.7-1.1c0.1,0,0.3,0,0.4,0C2.2,7.4,1.9,8.2,1.4,8.4L1.4,8.4z
	 M1.7,8.4l0.1-0.1c0,0,0.5-0.4,0.7-1.1c0.1,0,0.3,0,0.4,0C2.9,7.4,2.6,8,2.1,8.4L1.7,8.4z M2.3,8.4l0.1-0.1c0,0,0.6-0.3,0.8-1.1
	c0.1,0,0.3,0,0.4,0c-0.1,0.2-0.3,0.9-1,1.2L2.3,8.4L2.3,8.4z M2.3,8.7c0.2,0,0.4,0,0.5,0c-0.5,0.9-1,1.3-1.2,1.4c-0.2,0-0.4,0-0.6,0
	C1.7,9.7,2.1,9,2.3,8.7z M0.7,10.8l-0.2,0C0.9,10.6,1,10.3,1,10.3l0.2,0C1.1,10.6,0.9,10.7,0.7,10.8L0.7,10.8z M1.2,10.8l-0.2,0
	c0.4-0.2,0.4-0.5,0.4-0.5l0.2,0C1.5,10.5,1.3,10.7,1.2,10.8L1.2,10.8z M0.7,11.9C0.7,11.9,0.6,11.9,0.7,11.9
	c0.4-0.3,0.7-0.7,0.8-0.9c0.1,0,0.3,0,0.4-0.1c-0.2,0.5-0.5,0.8-0.7,0.9C0.9,11.9,0.8,11.9,0.7,11.9L0.7,11.9z M0.5,13
	c0.2-0.1,0.5-0.3,0.8-0.7c0.2,0,0.3,0,0.5-0.1c-0.1,0.2-0.4,0.5-0.9,0.8C0.7,13,0.6,13,0.5,13L0.5,13z M1,13.1
	c0.2-0.1,0.7-0.4,1.1-0.9c0.1,0,0.2,0,0.4-0.1h0l0,0c-0.2,0.2-0.5,0.6-1.1,1C1.2,13.1,1.1,13.1,1,13.1L1,13.1z M1.4,13.1
	c0.2-0.1,0.9-0.5,1.3-1.1c0.2,0,0.3,0,0.5-0.1c-0.2,0.3-0.5,0.8-1.2,1.2C1.8,13.2,1.6,13.2,1.4,13.1L1.4,13.1z M2.3,13.2l-0.2,0
	c0.1-0.1,1-0.6,1.4-1.3c0.1,0,0.3,0,0.4-0.1c-0.1,0.2-0.5,0.8-1.3,1.4C2.5,13.2,2.4,13.2,2.3,13.2L2.3,13.2z M1.3,14.4L1.3,14.4
	c0.1,0,0.7-0.3,1-0.7c0.2,0,0.3-0.1,0.5-0.1c-0.1,0.2-0.4,0.5-0.8,0.8l0.1,0C1.8,14.5,1.5,14.5,1.3,14.4L1.3,14.4z M2.7,14.4
	c-0.2,0-0.4,0-0.6,0c0,0,0.6-0.4,1-0.9c0.1,0,0.2-0.1,0.4-0.1C3.4,13.6,3.1,14,2.7,14.4L2.7,14.4z M2.8,14.4c0.2-0.2,0.7-0.6,0.9-1
	c0.1,0,0.1,0,0.2-0.1c0.1,0,0.1,0,0.2,0c-0.1,0.1-0.3,0.6-0.8,1C3.2,14.3,3,14.4,2.8,14.4z M4,14.2c-0.1,0-0.1,0-0.2,0
	c-0.1,0-0.3,0-0.4,0c0.2-0.2,0.6-0.5,0.9-1c0.1,0,0.2,0,0.4,0C4.7,13.4,4.5,13.8,4,14.2L4,14.2z M4.2,15.2L4.2,15.2l-0.2,0l0,0l0,0
	c0,0,0.3-0.3,0.4-0.7l0.4-0.1c0,0-0.1,0.3-0.3,0.6c0,0.1-0.1,0.1-0.1,0.2c0,0,0,0,0,0c0,0,0,0,0,0L4.2,15.2L4.2,15.2L4.2,15.2z
	 M3.5,16.9c0.6-0.4,0.8-0.9,0.9-1.1l0.4-0.2c-0.3,0.6-0.8,1.1-1,1.3C3.7,16.9,3.6,16.9,3.5,16.9L3.5,16.9z M4.4,16.8
	c-0.2,0-0.3,0-0.5,0c0.7-0.5,1-1.2,1.1-1.4l0.4-0.2C5.2,16.1,4.7,16.6,4.4,16.8L4.4,16.8z M5,16.7C5,16.7,5,16.7,5,16.7
	c-0.2,0-0.3,0.1-0.5,0.1c0.7-0.6,1-1.4,1.1-1.5l0.4-0.2C5.8,15.9,5.2,16.6,5,16.7L5,16.7z M7.2,18.3L7.5,18c0,0.4-0.1,1.3-0.4,1.9
	C7,19.9,6.9,20,6.8,20.1C6.9,19.9,7.2,19.2,7.2,18.3L7.2,18.3z M6.7,20.1c-0.1,0.1-0.2,0.1-0.3,0.2c0.1-0.2,0.3-0.7,0.3-1.2
	c0-0.1,0-0.3,0-0.4c0.1-0.1,0.2-0.2,0.3-0.3C7.1,18.8,7,19.6,6.7,20.1z M7.7,17.8L8,17.6c0,0.3,0,1.3-0.4,2
	c-0.1,0.1-0.2,0.1-0.3,0.2C7.4,19.5,7.7,18.8,7.7,17.8L7.7,17.8z M8.2,17.4c0.1-0.1,0.1-0.1,0.2-0.2c0,0.3,0.1,1.2-0.2,2
	c-0.1,0.1-0.2,0.2-0.4,0.3C7.9,19.2,8.2,18.5,8.2,17.4L8.2,17.4z M8.1,17.2c-0.1,0.1-0.3,0.2-0.4,0.3c0.1-0.3,0.2-0.6,0.2-1.1
	c0.1,0,0.2,0,0.3,0C8.2,16.6,8.2,16.9,8.1,17.2L8.1,17.2z M7.5,17.6c-0.1,0.1-0.3,0.2-0.5,0.3c0.2-0.3,0.5-0.8,0.4-1.6
	c0,0,0,0,0.1,0c0.1,0,0.1,0.1,0.2,0.1C7.7,16.6,7.7,17.1,7.5,17.6L7.5,17.6z M6.9,18c-0.1,0.1-0.2,0.1-0.4,0.2C6.7,18,7,17.4,7,16.6
	c0.1-0.1,0.2-0.2,0.3-0.2C7.3,16.7,7.2,17.4,6.9,18L6.9,18z M6.9,15.4c-0.2,0.4-0.4,0.7-0.5,0.9c-0.2,0.1-0.3,0.1-0.5,0.2
	c0.6-0.6,0.9-1.3,0.9-1.6C6.8,15,6.8,15.2,6.9,15.4L6.9,15.4z M5.9,16.6c0,0,0.1,0,0.1,0c0.1,0,0.2-0.1,0.3-0.1c0.1,0,0.2,0,0.3,0
	c0.1,0,0.2,0,0.2,0h0l-0.3,0.2l-0.1,0l0,0C6.4,16.6,6.2,16.6,5.9,16.6c0,0.1-0.2,0.1-0.2,0.1C5.8,16.6,5.9,16.6,5.9,16.6L5.9,16.6z
	 M6.5,16.9c0.1-0.1,0.2-0.1,0.3-0.2c0,0.3,0,1-0.4,1.6c-0.1,0.1-0.3,0.2-0.4,0.2C6.1,18.3,6.5,17.7,6.5,16.9z M5.8,18.6
	c-0.1,0.1-0.2,0.1-0.3,0.2c0.2-0.3,0.4-0.8,0.5-1.4c0.1-0.1,0.3-0.2,0.4-0.3C6.3,17.3,6.2,18,5.8,18.6z M6.5,16.1
	c0.2-0.2,0.3-0.4,0.4-0.6C7,15.6,7,15.7,7,15.7c0,0.1,0.1,0.1,0.1,0.2C7,16,6.8,16,6.5,16.1L6.5,16.1z M6.8,14l-0.2,0l-0.1,0l-0.1,0
	c0,0,0.1-0.1,0.1-0.2c0.1-0.1,0.1-0.2,0.2-0.3c0-0.1,0-0.1,0.1-0.2c0,0,0.1,0,0.1,0c0.1,0,0.3-0.1,0.4-0.3c0,0,0,0.1,0,0.1
	C7.2,13.4,7.1,13.8,6.8,14L6.8,14z M6.7,14.9c-0.3,0.7-0.7,1.4-1,1.6c-0.2,0.1-0.4,0.2-0.6,0.2c0.7-0.6,1-1.4,1.1-1.6L6.7,14.9
	L6.7,14.9z M5.1,17.1C5.2,17,5.3,17,5.3,16.9c0.2-0.1,0.5-0.1,0.9-0.1C6.1,16.9,6,16.9,6,17c-0.1,0-0.2,0-0.4,0
	C5.4,17,5.2,17.1,5.1,17.1L5.1,17.1L5.1,17.1z M4.3,17.7C4.3,17.7,4.3,17.7,4.3,17.7c0.1-0.1,0.2-0.2,0.3-0.3
	c0.3-0.1,0.7-0.2,0.9-0.1c-0.1,0.1-0.2,0.1-0.3,0.2c0,0,0,0,0,0C5.1,17.5,4.7,17.5,4.3,17.7L4.3,17.7z M4.9,19
	c0.1-0.2,0.4-0.7,0.4-1.3c0.1-0.1,0.2-0.2,0.3-0.2c0,0.3-0.1,0.8-0.4,1.4C5.2,18.9,5,18.9,4.9,19L4.9,19z M5.3,19.2
	C5.3,19.2,5.4,19.2,5.3,19.2C5.4,19.1,5.5,19,5.6,19c0.2-0.1,0.5-0.2,0.7-0.1L6.1,19l0,0C6,19.1,5.6,19,5.3,19.2L5.3,19.2z
	 M4.7,20.5c0.2-0.1,0.4-0.3,0.6-0.5c0,0.2,0,0.5-0.2,0.7C5,20.7,4.8,20.6,4.7,20.5L4.7,20.5z M5.2,20.7c0.1-0.1,0.2-0.4,0.2-0.9
	l0.3-0.2c0,0.2,0,0.7-0.2,1C5.4,20.6,5.3,20.7,5.2,20.7L5.2,20.7z M5.6,20.6c0.1-0.1,0.3-0.5,0.3-1.1c0.1-0.1,0.2-0.2,0.3-0.3
	c0,0.3,0,0.8-0.2,1.3C5.8,20.6,5.7,20.6,5.6,20.6L5.6,20.6z M6,20.5c0.1-0.2,0.3-0.7,0.3-1.4c0.1-0.1,0.2-0.2,0.3-0.3
	c0,0.2,0,0.4,0,0.6c0,0.3-0.1,0.7-0.3,1C6.2,20.4,6.1,20.4,6,20.5L6,20.5z M6.3,20.8C6.3,20.8,6.3,20.8,6.3,20.8
	C6.3,20.8,6.3,20.8,6.3,20.8L6.3,20.8z M6.4,20.7c0-0.1,0.1-0.1,0.1-0.2l0-0.1c0.2-0.1,0.6-0.3,0.8-0.2c0,0,0,0,0,0l-0.1,0.2
	C7.1,20.4,6.7,20.4,6.4,20.7L6.4,20.7z M6.8,22.1c-0.1,0-0.2,0-0.3,0.1c0-0.1,0.2-0.4,0.1-0.8l0.2-0.2C6.9,21.3,6.9,21.7,6.8,22.1
	L6.8,22.1z M6.9,22.1C7,21.9,7.1,21.4,7,21c0.1-0.1,0.2-0.2,0.2-0.2c0,0.3,0.1,0.8-0.1,1.2C7.1,22,7,22,6.9,22.1L6.9,22.1z
	 M7.6,21.5c0,0.1,0,0.2-0.1,0.3c-0.1,0-0.2,0.1-0.3,0.1c0.1-0.2,0.2-0.8,0.1-1.3c0.1-0.1,0.1-0.1,0.2-0.2C7.7,20.6,7.7,21,7.6,21.5
	L7.6,21.5z M7.8,21.7L7.8,21.7C7.7,21.7,7.7,21.7,7.8,21.7c-0.1,0,0-0.1,0-0.2l0,0c0,0,0-0.1,0-0.1c0,0,0-0.1,0-0.1c0-0.3,0-0.6,0-1
	C7.9,20.2,7.9,20.1,8,20c0,0.3,0.1,1-0.1,1.5L7.8,21.7L7.8,21.7z M8.4,21.3L8,21.5l0,0c0,0,0.3-0.8,0.1-1.6c0.1-0.1,0.2-0.2,0.2-0.2
	C8.5,20,8.5,20.7,8.4,21.3z M8.9,20.8c0-0.2,0.1-0.9,0-1.6C9,19.1,9.1,19,9.2,18.9c0.1,0.3,0.2,0.9,0,1.6C9.1,20.6,9,20.7,8.9,20.8
	L8.9,20.8z M9.6,20.5c0.1,0.6,0,1.3,0,1.6l-0.3,0.3c0.1-0.6,0.1-1.4,0.1-1.6C9.4,20.6,9.5,20.5,9.6,20.5L9.6,20.5z M9.1,17
	c0.1,0.1,0.2,0.4,0.1,1.1c0,0,0,0.1,0,0.1l-0.4,0.4C9,18.4,9.2,17.8,9.1,17z M8.8,21l-0.3,0.3c0.1-0.2,0.3-1,0.1-1.7
	c0.1-0.1,0.1-0.1,0.2-0.2C8.8,19.6,8.9,20.2,8.8,21L8.8,21z M8.6,16.7c-0.1,0.1-0.2,0.2-0.3,0.3c0.1-0.2,0.1-0.4,0.1-0.6
	c0.1,0,0.2,0,0.2,0C8.6,16.4,8.6,16.5,8.6,16.7C8.6,16.7,8.6,16.7,8.6,16.7L8.6,16.7z M7.8,15c-0.1-0.6,0.4-0.9,0.4-0.9
	c-0.4,1,0.4,1.4,0.4,1.4c-0.6,0.1-0.8-0.3-0.8-0.3c-0.1,0.4,0.3,0.7,0.3,0.7c-1.6-0.2-0.8-1.7-0.8-1.8h0C7.2,14.8,7.8,15,7.8,15
	L7.8,15z M7.5,12.3c0,0.3-0.1,0.4-0.3,0.5C7.2,12.9,7.1,13,7,13c-0.1,0-0.1,0.1-0.1,0.1C7,13,7.1,12.9,7.1,12.8c0.3-0.5,0-1-0.1-1.3
	c-0.2,0-0.3-0.1-0.3-0.1c0.7,1.3-0.1,1.7-0.4,1.8c0,0,0,0,0,0v0c0,0,0,0,0,0s0,0,0,0c0,0.2-0.1,0.4-0.3,0.7c-0.1,0-0.3,0.1-0.5,0.1
	c0.2-0.2,0.4-0.4,0.6-0.7c0.1,0,0.1,0,0.1,0s-0.6,0-0.9-0.5c-0.5-0.8-0.2-1.5-0.2-1.5c-0.1,0.6,0.3,1.1,0.3,1.1
	c-0.1-0.1-0.3-1.3,0-1.5c0.6-0.5,1.1,0.4,1.1,0.4c-0.2-0.3-0.2-0.7-0.2-0.9c0.4,0.5,0.9,0.7,1.3,0.8l-0.3,0.4
	C7.5,11.8,7.5,12.1,7.5,12.3L7.5,12.3z M11.8,7c-0.1,0-0.2,0-0.2,0.1c-0.4,0.2-0.6,0.5-1,1.1c0,0-0.1,0.1-0.1,0.1
	c-0.1,0.1-0.2,0.3-0.3,0.3C9.8,9,9.3,8.8,9.3,8.8c1-0.1,1.1-1.1,1.6-1.5C11.2,7.1,11.4,7,11.6,7C11.7,7,11.8,7,11.8,7L11.8,7z
	 M8.2,6.9C9,6.6,8.9,6.2,8.9,6.2C9.1,6.4,9.1,6.8,8.4,7C7.6,7.3,7.1,8.1,7.1,8.1S7.3,7.2,8.2,6.9L8.2,6.9z M7.3,8.8
	c-0.1,0.6,0.1,1.3,0.1,1.3C6.7,9.4,7.3,8.8,7.3,8.8L7.3,8.8z M7.6,8.8c-0.2,0.8,0.2,1.6,0.2,1.6C6.9,9.4,7.6,8.8,7.6,8.8z M8,8.6
	c-0.3,1.3,0.3,2.2,0.3,2.2C7.1,9.8,8,8.6,8,8.6z M8.3,9c0,1,0.3,1.5,0.3,1.5C7.8,9.9,8.3,9,8.3,9L8.3,9z M8.7,7.8
	c0.1-0.5,0.5-0.2,0.7-0.6c0,0,0,0.3-0.3,0.4c0,0,0.4,0,0.6-0.4c0,0,0,0.5-0.3,0.6c0,0,0.4-0.1,0.7-0.4c0.3-0.4,0.4-0.6,0.9-0.5
	c-0.6,0.2-0.6,1-1.2,1.5C9.3,8.7,8.5,8.6,8.7,7.8L8.7,7.8z M11.4,8.6c0,0.1,0,0.1,0,0.2c0,0.1,0,0.2-0.1,0.2c0,0,0,0,0,0
	c0,0-0.1,0.1-0.1,0.2c-0.1,0.1-0.2,0.2-0.3,0.3c-0.1,0.1-0.3,0.2-0.3,0.4c0,0,0.1-0.4,0.4-0.7c0,0,0,0,0,0c0.1-0.1,0.1-0.2,0.2-0.3
	c0-0.1,0.1-0.1,0.1-0.2c0.1-0.1,0.1-0.2,0.1-0.2l0,0c0,0,0,0,0,0C11.4,8.4,11.4,8.5,11.4,8.6L11.4,8.6z M12.2,7.3
	c0,0.1,0,0.1-0.1,0.2c-0.1,0.1-0.2,0.2-0.5,0.3l0,0c-0.1,0-0.1,0-0.2,0.1C11.3,8,11.1,8.1,11,8.2c0,0,0,0.1-0.1,0.1
	c-0.1,0.1-0.1,0.2-0.2,0.3c0,0,0,0.1,0,0.1l0,0.1c0,0.1-0.1,0.2-0.2,0.3c-0.5,0.7-1.1,0.7-1.2,0.2c0,0,0.2,0.3,0.5,0.2
	c0.2-0.1,0.4-0.4,0.6-0.7c0.1-0.1,0.1-0.2,0.2-0.4c0.1-0.2,0.2-0.4,0.3-0.5c0,0,0.1-0.1,0.1-0.1c0.1-0.1,0.1-0.1,0.2-0.2
	c0,0,0.1,0,0.1-0.1c0.2-0.1,0.5-0.2,0.7-0.2C12.2,7.2,12.3,7.3,12.2,7.3L12.2,7.3z M14,5.3C13.2,6.2,12,5.5,12,5.5
	C13.2,5.8,14,5.3,14,5.3z M8.6,2.9C8.8,2.2,9.1,2.1,9.4,2c0.3-0.2,1.1-0.1,1.1-0.1c-0.1,0.1-0.2,0.3-0.2,0.3s0.2-0.2,0.7-0.4
	c0.2-0.1,0.4-0.2,0.5-0.3h-0.7c-0.6,0.2-1.1,0.1-1.5,0.3C8.6,2.1,8.6,2.9,8.6,2.9L8.6,2.9z M6.8,10.1c0,0-0.7-1-0.2-2.6
	C6.6,7.6,5.6,8.7,6.8,10.1z M17.9,2.2c-0.3-0.2-0.6-0.4-0.8-0.7H17C17.2,1.9,17.4,2,17.4,2c-0.4,0-0.9-0.3-1.2-0.5h-0.1
	C17,2.4,17.9,2.2,17.9,2.2L17.9,2.2z M19.4,2.4c0.9,0.1,1.6-0.3,1.9-0.9H21c-0.4,0.3-1.1,0.5-1.9,0h-0.2c0.2,0.2,0.4,0.4,0.7,0.5
	c0,0-0.5,0-1.1-0.5h-0.1c0.1,0.2,0.3,0.5,0.6,0.6c0,0-0.5-0.1-1-0.6H18C18.2,1.9,18.7,2.4,19.4,2.4L19.4,2.4z M10.8,2.3
	C10.3,2.5,10.2,3,10.2,3s0.2-0.4,0.6-0.5c0.2,0,0.5-0.2,0.5-0.2s-0.2,0.5-0.6,0.6c-0.4,0.2-0.6,0.6-0.6,0.8c0,0,0.2-0.4,0.7-0.6
	c0.4-0.2,0.7-0.7,0.8-1.3C11.6,1.8,11.3,2.2,10.8,2.3L10.8,2.3z M20.6,9.5c0,0,0.3,0,0.7,0.1V9.4C21.1,9.4,20.9,9.4,20.6,9.5
	L20.6,9.5z M21.3,19.2V19c-0.9,0-1.4,0.2-1.4,0.2C20.5,19.2,20.9,19.2,21.3,19.2L21.3,19.2z M21.3,18.5v-0.2c-0.6,0-1,0.1-1,0.1
	C20.7,18.5,21.1,18.5,21.3,18.5z M21.3,18.8v-0.2c-0.6,0-1,0.1-1,0.1C20.7,18.8,21.1,18.9,21.3,18.8L21.3,18.8z M20.2,8.7
	c0,0,0.5,0,1.1,0.1V8.6C21,8.6,20.7,8.6,20.2,8.7z M21.3,4V3.9c-0.3,0-0.6,0-1,0C20.3,3.9,20.7,4,21.3,4z M19.8,4.9
	c0,0,0.6,0,1.5,0.1V4.9C20.9,4.8,20.4,4.8,19.8,4.9z M20.2,4.4c0,0,0.5,0,1.2,0.1V4.4C21,4.4,20.6,4.4,20.2,4.4z M20.9,13.5
	c0,0,0.2,0,0.5,0.1v-0.1C21.2,13.4,21,13.4,20.9,13.5L20.9,13.5z M21.3,8L21.3,8c-0.1,0-0.3,0-0.4,0C20.9,8,21.1,8,21.3,8L21.3,8z
	 M21.3,13.9v-0.1c-0.1,0-0.3,0-0.5,0C20.9,13.8,21.1,13.8,21.3,13.9z M20.6,10.9c0,0,0.3,0,0.7,0.2v-0.2
	C21.1,10.9,20.9,10.9,20.6,10.9z M20.7,11.7c0,0,0.3,0,0.7,0.2v-0.2C21.1,11.6,20.9,11.6,20.7,11.7z M19.4,5.4c0,0,0.9,0,2,0.2V5.4
	C20.9,5.3,20.2,5.3,19.4,5.4z M20.5,9.1c0,0,0.3,0,0.9,0.1V9C21.1,9,20.8,9,20.5,9.1z M20.7,12.7c0,0,0.3,0,0.6,0.1v-0.2
	C21.2,12.7,21,12.7,20.7,12.7L20.7,12.7z M20.7,12c0,0,0.3,0,0.6,0.2V12C21.2,12,20.9,12,20.7,12L20.7,12z M20.8,13.1
	c0,0,0.2,0,0.6,0.1v-0.1C21.2,13.1,21,13.1,20.8,13.1L20.8,13.1z M20.7,12.4c0,0,0.3,0,0.6,0.1v-0.2C21.2,12.3,21,12.3,20.7,12.4
	L20.7,12.4z"/>
<g>
	
		<linearGradient id="SVGID_2_" gradientUnits="userSpaceOnUse" x1="-229.7041" y1="-792.0175" x2="-250.6692" y2="-792.0175" gradientTransform="matrix(1 0 0 1 272 804)">
		<stop  offset="0.5" style="stop-color:#6B113D"/>
		<stop  offset="1" style="stop-color:#490724"/>
	</linearGradient>
	<path class="st2" d="M21.3,1.5h21v21h-21V1.5z"/>
	<path class="st3" d="M28.4,12v3H30v0.5h-2.4V12L28.4,12L28.4,12z M31.4,12v3.5h-0.8V12H31.4L31.4,12z M36.3,13.7
		c0,1.1-0.8,1.8-2.1,1.8c-0.5,0-1-0.2-1.3-0.4c-0.4-0.3-0.6-0.8-0.6-1.4c0-0.6,0.2-1,0.7-1.4c0.4-0.3,0.9-0.5,1.4-0.5
		C35.5,11.9,36.3,12.6,36.3,13.7z M33,13.7c0,0.8,0.5,1.4,1.3,1.4c0.3,0,0.5-0.1,0.7-0.3c0.3-0.2,0.4-0.6,0.4-1
		c0-0.9-0.5-1.5-1.3-1.5C33.5,12.4,33,12.9,33,13.7L33,13.7z M37.1,12c0.9,0,1.3,0,1.3,0c0.6,0,0.8,0,1.1,0.2
		c0.3,0.2,0.4,0.4,0.4,0.8c0,0.5-0.3,0.8-0.9,1c0.5,1,0.9,1.3,1.3,1.3l0,0l-0.1,0.2c0,0.1-0.2,0.1-0.4,0.1c-0.4,0-0.7-0.2-1-0.6
		c-0.2-0.2-0.3-0.5-0.5-1c-0.1,0-0.2,0-0.3,0c-0.1,0-0.1,0-0.2,0v1.5h-0.8L37.1,12L37.1,12z M37.8,13.6c0.3,0,0.4,0,0.4,0
		c0.6,0,0.8-0.2,0.8-0.6c0-0.3-0.1-0.5-0.3-0.5c-0.1,0-0.2-0.1-0.5-0.1c-0.1,0-0.2,0-0.4,0L37.8,13.6L37.8,13.6z"/>
	<path class="st4" d="M24.1,16.9c0.3,0,0.3,0,0.5,0c0.2,0,0.4,0,0.4,0c0.5,0,0.7,0.1,0.9,0.2c0.2,0.1,0.3,0.4,0.3,0.6
		c0,0.4-0.2,0.6-0.6,0.7c0.3,0,0.4,0.1,0.5,0.2c0.2,0.2,0.4,0.4,0.4,0.7c0,0.4-0.2,0.7-0.6,0.9c-0.3,0.1-0.5,0.1-1.1,0.1h-0.7
		L24.1,16.9L24.1,16.9z M25,18.4c0.3,0,0.5,0,0.6-0.1c0.1-0.1,0.2-0.3,0.2-0.5c0-0.2-0.1-0.4-0.2-0.5c-0.1-0.1-0.3-0.1-0.5-0.1
		c-0.1,0-0.2,0-0.5,0v1.2L25,18.4L25,18.4z M25,20.1c0.4,0,0.7-0.1,0.9-0.2c0.2-0.1,0.2-0.3,0.2-0.5c0-0.3-0.1-0.5-0.4-0.6
		c-0.2-0.1-0.4-0.1-0.8-0.1h-0.5v1.5L25,20.1L25,20.1z M28.9,16.9l1.3,3.5h-0.5l-0.4-1.1h-1.5l-0.5,1.1h-0.4l1.6-3.5
		C28.6,16.9,28.9,16.9,28.9,16.9z M28.7,17.3L28,19h1.3L28.7,17.3L28.7,17.3z M31.1,16.9l2.4,2.8l-0.1-2.8h0.4l0,3.5l-0.2,0.1
		l-2.5-2.9l0.1,2.9h-0.4v-3.5L31.1,16.9L31.1,16.9z M35.5,16.9v3.5H35v-3.5H35.5L35.5,16.9z M37.8,16.9L36,18.4l1.9,1.9h-0.6
		l-1.8-1.9l1.7-1.6L37.8,16.9L37.8,16.9z"/>
	<path class="st3" d="M25.5,11.8h-1.2l0,0c0,0-0.1,0.3-0.1,0.4c0,0.1,0.7,0,0.7,0l-1.5,3.2H24l0.4-0.9h1.5l0.3,0.9H27L25.5,11.8
		L25.5,11.8z M24.5,14.2l0.6-1.5l0.6,1.5H24.5L24.5,14.2z"/>
</g>
</svg>
