<svg xmlns="http://www.w3.org/2000/svg" viewBox="0 0 222.99 131.3"><defs><style>.a{fill:#535453;}.b{fill:#fff;}</style></defs><title>all-2</title><path class="a" d="M123.6,119.12l.6-3.94h-3.77v-2.55a2,2,0,0,1,1.78-2.13,2.16,2.16,0,0,1,.44,0h1.71v-3.35a20.67,20.67,0,0,0-3-.26c-3.11,0-5.14,1.88-5.14,5.29v3h-3.46v3.93h3.46v9.51h4.25v-9.51Z" transform="translate(-0.8 -0.28)"/><path class="a" d="M146.72,115.53l9.64,6.35-.21.15-9.2,5.82-.23.1Z" transform="translate(-0.8 -0.28)"/><path class="a" d="M175.36,128l-.22-.1L165.93,122l-.22-.15,9.65-6.35Z" transform="translate(-0.8 -0.28)"/><path class="a" d="M161,111.9h12.39a1.78,1.78,0,0,1,1.8,1.2.36.36,0,0,1-.14.48h0l-9.31,6.13-4.5,3a.32.32,0,0,1-.41,0L147,113.56a.28.28,0,0,1-.14-.38h0a1.78,1.78,0,0,1,1.54-1.27H161Z" transform="translate(-0.8 -0.28)"/><path class="a" d="M146.78,130.08l.25-.16,10.74-6.8a.38.38,0,0,1,.49,0c.71.49,1.44.95,2.16,1.44a1,1,0,0,0,1.25,0c.73-.5,1.47-1,2.21-1.47a.29.29,0,0,1,.37,0l10.91,6.9.12.09a1.73,1.73,0,0,1-1.65,1.51H148.68a1.77,1.77,0,0,1-1.79-1.13A3.46,3.46,0,0,1,146.78,130.08Z" transform="translate(-0.8 -0.28)"/><path class="b" d="M158.59,90.06a2.78,2.78,0,0,0,2-.68c.67-.63,1.32-1.3,1.95-2a1.38,1.38,0,0,0,.34-1.27,2,2,0,0,0-.57-.93l-2.41-2.41c-.1-.1-.21-.19-.32-.28a1.5,1.5,0,0,0-1.15-.34,1.81,1.81,0,0,0-1,.58c-.51.5-1,1-1.5,1.51-.14.14-.28.22-.47.12-.4-.22-.82-.41-1.2-.65a14.91,14.91,0,0,1-3-2.54A11.85,11.85,0,0,1,148.93,78c-.15-.34-.15-.4.11-.65l1.44-1.45a1.74,1.74,0,0,0,.59-1,1.64,1.64,0,0,0-.58-1.44c-.82-.82-1.64-1.65-2.47-2.46a2.43,2.43,0,0,0-.68-.47,1.48,1.48,0,0,0-1.7.43c-.57.56-1.14,1.13-1.7,1.7a2.4,2.4,0,0,0-.61,1.06,4.72,4.72,0,0,0,0,2.36,14.92,14.92,0,0,0,1.95,4.57,21.87,21.87,0,0,0,10,8.7A9,9,0,0,0,158.59,90.06ZM154,74.27a5.9,5.9,0,0,1,4.94,4.79l1.64-.29a7.44,7.44,0,0,0-6.35-6.13Z" transform="translate(-0.8 -0.28)"/><path class="a" d="M154.56,68.25c.49.11,1,.21,1.47.34a12.13,12.13,0,0,1,5.75,3.47,12.45,12.45,0,0,1,3,5.4c.08.31.15.62.22.93v.08l-1.64.3a11,11,0,0,0-9.14-8.88l.22-1.64Z" transform="translate(-0.8 -0.28)"/><path class="a" d="M158.59,90.06a9,9,0,0,1-3.31-.78,21.85,21.85,0,0,1-10-8.7,14.81,14.81,0,0,1-2-4.57,5,5,0,0,1,0-2.36,2.4,2.4,0,0,1,.61-1.06l1.7-1.7a1.48,1.48,0,0,1,1.7-.43,2.4,2.4,0,0,1,.68.46c.83.82,1.65,1.65,2.47,2.47a1.64,1.64,0,0,1,.58,1.44,1.81,1.81,0,0,1-.58,1c-.48.49-1,1-1.45,1.45-.26.25-.26.31-.11.65a12.39,12.39,0,0,0,2.29,3.23,15.08,15.08,0,0,0,3,2.53c.39.25.8.44,1.2.65.19.11.33,0,.47-.11l1.5-1.51a1.81,1.81,0,0,1,1-.58,1.49,1.49,0,0,1,1.15.34c.11.09.22.18.32.28.8.8,1.61,1.6,2.41,2.41a2,2,0,0,1,.57.93,1.38,1.38,0,0,1-.33,1.26c-.64.68-1.28,1.35-2,2A2.76,2.76,0,0,1,158.59,90.06Z" transform="translate(-0.8 -0.28)"/><path class="a" d="M154,74.27l.23-1.63a7.44,7.44,0,0,1,6.35,6.13l-1.64.28A5.91,5.91,0,0,0,154,74.27Z" transform="translate(-0.8 -0.28)"/><path class="a" d="M130,87.12a1.94,1.94,0,0,1-.58,1.1,1.78,1.78,0,0,1-2.52-.09l0,0-4.74-4.74-.13-.18c-.59.31-1.1.63-1.66.86a8.92,8.92,0,0,1-9.85-14.48,8.6,8.6,0,0,1,5.3-2.59A8.71,8.71,0,0,1,121,68,8.83,8.83,0,0,1,124.35,71a8.89,8.89,0,0,1,.17,9.32.28.28,0,0,0,0,.39l0,0c1.54,1.52,3.06,3.06,4.6,4.59a2.58,2.58,0,0,1,.83,1.35Zm-7.13-11.29a6,6,0,1,0-6.05,6,6.06,6.06,0,0,0,6.05-6Z" transform="translate(-0.8 -0.28)"/><path d="M217.56,80.25c.25,0,.5.08.75.14a4.88,4.88,0,0,1,3.62,3.83,5.78,5.78,0,0,1-.34,3,14.09,14.09,0,0,1-1.58,3c-.71,1.06-1.46,2.1-2.19,3.16l-.34.48a.39.39,0,0,1-.65,0c-1-1.44-2.06-2.82-3-4.32a12.2,12.2,0,0,1-1.35-3,4.85,4.85,0,0,1,.47-3.92,4.76,4.76,0,0,1,3.48-2.33l.28,0Zm-.41,12.65.06-.07c.68-1,1.36-1.93,2-2.91a14.13,14.13,0,0,0,1.59-3,4.91,4.91,0,0,0,.29-2.57A4,4,0,1,0,213.21,86a9.2,9.2,0,0,0,.89,2.32,31,31,0,0,0,2,3.17Q216.64,92.17,217.15,92.9Z" transform="translate(-0.8 -0.28)"/><path d="M214.74,85.1a2.42,2.42,0,1,1,2.41,2.42A2.42,2.42,0,0,1,214.74,85.1Zm2.41,1.61a1.62,1.62,0,1,0-1.61-1.63A1.63,1.63,0,0,0,217.15,86.71Z" transform="translate(-0.8 -0.28)"/><path d="M220.4,110.25a6.55,6.55,0,0,1-1.77-.42,12.57,12.57,0,0,1-3.82-2.33,15,15,0,0,1-3.42-4.12,8.7,8.7,0,0,1-1-2.65c0-.14,0-.29-.07-.44a.73.73,0,0,1,.11-.48,11.14,11.14,0,0,1,1.65-2.16,7,7,0,0,1,.7-.63.83.83,0,0,1,1.33.22c.39.56.76,1.14,1.12,1.73a7.14,7.14,0,0,1,.53,1,.92.92,0,0,1-.28,1.3l-.66.57a.13.13,0,0,0-.05.18,6.13,6.13,0,0,0,3.73,3.73.16.16,0,0,0,.2,0c.15-.19.3-.37.47-.55a4.68,4.68,0,0,1,.39-.38.73.73,0,0,1,.66-.13,5.32,5.32,0,0,1,1.38.66c.58.35,1.14.73,1.7,1.1a1,1,0,0,1,.25.22c.3.4.33.69.06,1a9.65,9.65,0,0,1-1,1,9.37,9.37,0,0,1-1.9,1.41A1.84,1.84,0,0,1,220.4,110.25ZM213.33,97.7l-.09.07a13.09,13.09,0,0,0-1.91,2.23.58.58,0,0,0-.09.46,7.31,7.31,0,0,0,.73,2.09,14.3,14.3,0,0,0,5.67,5.84,8.15,8.15,0,0,0,2.45.92.54.54,0,0,0,.44-.09,13.1,13.1,0,0,0,1.75-1.4l.57-.59-.15-.12a15.41,15.41,0,0,0-2.54-1.5c-.1-.06-.16,0-.23,0-.25.3-.52.58-.77.88a.59.59,0,0,1-.7.18,6.91,6.91,0,0,1-2.63-1.5,6.62,6.62,0,0,1-2-3.06c-.16-.52-.2-.42.21-.83s.54-.49.81-.72a.16.16,0,0,0,.05-.24,17.42,17.42,0,0,0-1.3-2.26Z" transform="translate(-0.8 -0.28)"/><path d="M211,125.25v-7.37a.25.25,0,0,0,0-.07,1.17,1.17,0,0,1,1.17-.93h10.13a1.16,1.16,0,0,1,1.18,1.17v7a1.17,1.17,0,0,1-1.17,1.17H212.17a1.18,1.18,0,0,1-.88-.39A1.43,1.43,0,0,1,211,125.25Zm11.72-6.73-.1.08-5,4.36c-.26.23-.41.23-.67,0l-4.48-3.89c-.21-.18-.43-.36-.66-.57V125c0,.35.15.49.49.49h10c.35,0,.49-.14.49-.49v-6.46Zm-.26-.82v0h-10.4v0l5.21,4.52Z" transform="translate(-0.8 -0.28)"/><path class="b" d="M151,24.27V4.36a.35.35,0,0,0,.05-.08,3.52,3.52,0,0,1,3.58-3h18.83A3.53,3.53,0,0,1,177,4.85V23.79a3.5,3.5,0,0,1-2.39,3.33c-.23.08-.47.13-.71.2h-19.8l-.14-.05a3.5,3.5,0,0,1-2.83-2.55C151.11,24.57,151.07,24.42,151,24.27Zm13.9-11.42-.05-.07c0-.22,0-.44,0-.66a.49.49,0,0,0-.57-.55H162c-.42,0-.6.18-.6.6v9.64c0,.44.19.63.64.63h2.08c.55,0,.7-.15.7-.69,0-1.64,0-3.28,0-4.92a3.11,3.11,0,0,1,.49-1.73,1.65,1.65,0,0,1,1.64-.75,1.44,1.44,0,0,1,1.39,1.13,6.56,6.56,0,0,1,.21,1.6c0,1.58,0,3.16,0,4.74,0,.44.18.61.62.62h2.26c.45,0,.63-.19.63-.64,0-1.76,0-3.52,0-5.28a12.79,12.79,0,0,0-.24-2.23,3.43,3.43,0,0,0-1.35-2.23,3.88,3.88,0,0,0-2.29-.66A3.54,3.54,0,0,0,164.93,12.85ZM159.88,17V12.29c0-.58-.15-.73-.74-.73h-2c-.45,0-.65.2-.65.65v9.57a.58.58,0,0,0,.67.66h2c.54,0,.72-.17.72-.71C159.89,20.16,159.88,18.58,159.88,17Zm.5-8.61a2.2,2.2,0,0,0-2.2-2.21A2.24,2.24,0,0,0,156,8.41a2.21,2.21,0,0,0,2.19,2.2A2.18,2.18,0,0,0,160.38,8.4Z" transform="translate(-0.8 -0.28)"/><path class="b" d="M65.8,27.71H57.55l-.12-.05a3.77,3.77,0,0,1-2.93-2.21,11,11,0,0,1-.36-1.15V4.71a.61.61,0,0,0,0-.12A3.84,3.84,0,0,1,58,1.31q9.34,0,18.69,0a3.85,3.85,0,0,1,3.85,3.85q0,9.35,0,18.69a3.7,3.7,0,0,1-2.21,3.47,7.89,7.89,0,0,1-1.19.39h-6.7V18.37h3.91l.78-4.65H70.45V10.58h4.66V6c-1.64,0-3.27-.07-4.89,0a4.6,4.6,0,0,0-4.42,4.74c0,.91,0,1.82,0,2.73v.3H62.72v4.64H65.8Z" transform="translate(-0.8 -0.28)"/><path class="b" d="M123.1,27.26H108.24s-.07-.05-.11-.05a6.19,6.19,0,0,1-2.27-.7,6.73,6.73,0,0,1-3.56-4.73l-.12-.58V6.34l.06-.17c.09-.39.14-.79.26-1.17A6.75,6.75,0,0,1,109,.28h13.33a6.35,6.35,0,0,1,2.76.56,6.62,6.62,0,0,1,4.06,6.32c0,4.4,0,8.8,0,13.2a6.79,6.79,0,0,1-5.48,6.78ZM115.68,2.54H109.1a5.93,5.93,0,0,0-.84.06,4.43,4.43,0,0,0-3.81,4.28c0,4.58,0,9.16,0,13.74a3.68,3.68,0,0,0,0,.58A4.46,4.46,0,0,0,108.69,25c4.61,0,9.22,0,13.83,0a3.66,3.66,0,0,0,.57,0,4.45,4.45,0,0,0,3.8-4.24c0-4.6,0-9.2,0-13.8a5.09,5.09,0,0,0,0-.55,4.47,4.47,0,0,0-4.24-3.8C120.3,2.53,118,2.54,115.68,2.54Z" transform="translate(-0.8 -0.28)"/><path class="b" d="M115.67,7a6.74,6.74,0,1,1-6.74,6.73A6.73,6.73,0,0,1,115.67,7Zm0,2.25a4.49,4.49,0,1,0,4.49,4.48A4.49,4.49,0,0,0,115.67,9.28Z" transform="translate(-0.8 -0.28)"/><path class="b" d="M123,8.15a1.69,1.69,0,1,1,0-3.38,1.69,1.69,0,1,1,0,3.38Z" transform="translate(-0.8 -0.28)"/><path class="b" d="M19,27.25H7.78A6.85,6.85,0,0,1,.94,21.72a8.37,8.37,0,0,1-.14-1.5c0-3.95,0-7.91,0-11.86A6.87,6.87,0,0,1,7.6,1.24H30a6.86,6.86,0,0,1,6.73,4.38,7.7,7.7,0,0,1,.48,2.5c0,4.08,0,8.15,0,12.23a6.86,6.86,0,0,1-6.92,6.9Zm-4.76-7.4,9.52-5.58L14.26,8.7Z" transform="translate(-0.8 -0.28)"/></svg>