<?xml version="1.0" encoding="utf-8"?>
<!-- Generator: Adobe Illustrator 23.0.1, SVG Export Plug-In . SVG Version: 6.00 Build 0)  -->
<svg version="1.1" id="Layer_1" xmlns="http://www.w3.org/2000/svg" xmlns:xlink="http://www.w3.org/1999/xlink" x="0px" y="0px"
	 viewBox="0 0 18 9" style="enable-background:new 0 0 18 9;" xml:space="preserve">
<style type="text/css">
	.st0{fill:#808080;}
</style>
<path id="Shape_9_copy_4" class="st0" d="M9,7.2C9.1,7.1,9.2,7,9.2,7c2.4-2.2,4.8-4.4,7.3-6.7c0.2-0.1,0.4-0.2,0.6-0.3
	c0.3-0.1,0.6,0.1,0.8,0.4C18,0.6,18,1,17.8,1.2c-0.1,0.1-0.1,0.1-0.2,0.2L9.7,8.6C9.4,9,8.8,9.1,8.4,8.8c-0.1,0-0.1-0.1-0.2-0.2
	C5.6,6.2,3,3.8,0.3,1.4C0.2,1.2,0.1,1,0,0.8C0,0.5,0.1,0.2,0.4,0.1C0.7-0.1,1.1,0,1.3,0.2c0.1,0.1,0.2,0.1,0.2,0.2L8.8,7
	C8.8,7.1,8.9,7.1,9,7.2z"/>
</svg>
