<svg xmlns="http://www.w3.org/2000/svg" viewBox="0 0 14.25 15.23"><defs><style>.a{fill:#575289;}</style></defs><title>ikona</title><path class="a" d="M2.84,12.09A11.32,11.32,0,0,1,0,3.68,3.91,3.91,0,0,1,3.37,0H4a1,1,0,0,1,.88,1l.41,4.43a.74.74,0,0,1-.37.7l-1,.59a.39.39,0,0,1-.54-.14.08.08,0,0,1,0,0,.46.46,0,0,1,.16-.61l.95-.54L4,1.06A.15.15,0,0,0,3.89.91H3.82a1.21,1.21,0,0,0-.38,0A3,3,0,0,0,.87,3.73a10.37,10.37,0,0,0,2.57,7.73,9.05,9.05,0,0,0,7.27,2.87,3,3,0,0,0,2.69-2.69,1.41,1.41,0,0,0,0-.41v-.05a.14.14,0,0,0-.14-.16L9.2,10.54l-.53,1a.4.4,0,0,1-.54.17h0A.46.46,0,0,1,8,11.09L8.52,10a.68.68,0,0,1,.66-.37l4.17.49a1,1,0,0,1,.89.94v.06q0,.3,0,.6a3.89,3.89,0,0,1-3.49,3.5h-.57A9.81,9.81,0,0,1,2.84,12.09ZM4.51,5.33ZM7,11.47a7.23,7.23,0,0,1-2-1.54A7.57,7.57,0,0,1,3.54,7.82a.45.45,0,0,1,.2-.6.4.4,0,0,1,.54.18l0,0A6.81,6.81,0,0,0,5.53,9.3a6.63,6.63,0,0,0,1.79,1.36.47.47,0,0,1,.2.6.43.43,0,0,1-.38.25.41.41,0,0,1-.19,0Z"/></svg>