<svg xmlns="http://www.w3.org/2000/svg" viewBox="0 0 16.76 16.76"><defs><style>.a{fill:#575289;}</style></defs><title>ikona</title><path class="a" d="M0,8.38A8.43,8.43,0,0,1,2.16,2.74a.34.34,0,0,1,.48,0h0a.35.35,0,0,1,0,.5A7.56,7.56,0,1,0,4.32,1.83a.36.36,0,0,1-.48-.12h0A.35.35,0,0,1,4,1.23H4A8.21,8.21,0,0,1,8.28,0,8.38,8.38,0,1,1,0,8.48v-.1Zm1.9,0a6.38,6.38,0,1,1,10.75,4.7.35.35,0,0,1-.49,0h0a.35.35,0,0,1,0-.49h0a5.68,5.68,0,1,0-3.9,1.57,5.46,5.46,0,0,0,2-.35.35.35,0,0,1,.44.21.34.34,0,0,1-.21.45h0a6.27,6.27,0,0,1-2.18.39A6.42,6.42,0,0,1,1.9,8.38Zm5.1.8.79-.8L6,6.53,6.45,6,8.27,7.89,11.13,5l.49.5L8.76,8.38l.45.45-.49.5-.45-.46-.79.8Z"/></svg>