<svg xmlns="http://www.w3.org/2000/svg" viewBox="0 0 15.83 11.22"><defs><style>.a{fill:#575289;}</style></defs><title>ikona</title><path class="a" d="M1.16,11.22A1.14,1.14,0,0,1,0,10.1v-9A1.14,1.14,0,0,1,1.16,0H14.68a1.14,1.14,0,0,1,1.15,1.12v9a1.14,1.14,0,0,1-1.15,1.12ZM.77,1.12v9a.4.4,0,0,0,.39.38H14.68a.39.39,0,0,0,.38-.38h0v-9a.37.37,0,0,0-.38-.37H1.16a.38.38,0,0,0-.39.37ZM2.32,9a.38.38,0,1,1,0-.75H3.86a.38.38,0,1,1,0,.75H2.32ZM7.7,7,2.1,3.43A.37.37,0,0,1,2,2.92H2a.38.38,0,0,1,.53-.1L7.9,6.27l3.83-3a.4.4,0,0,1,.54.06.37.37,0,0,1,0,.52h0L8.16,7a.43.43,0,0,1-.24.08A.36.36,0,0,1,7.7,7Z"/></svg>