<?xml version="1.0" encoding="utf-8"?>
<!-- Generator: Adobe Illustrator 23.0.1, SVG Export Plug-In . SVG Version: 6.00 Build 0)  -->
<svg version="1.1" id="Layer_1" xmlns="http://www.w3.org/2000/svg" xmlns:xlink="http://www.w3.org/1999/xlink" x="0px" y="0px"
	 viewBox="0 0 36.3 23" style="enable-background:new 0 0 36.3 23;" xml:space="preserve">
<style type="text/css">
	.st0{fill-rule:evenodd;clip-rule:evenodd;fill:#424143;}
	.st1{fill-rule:evenodd;clip-rule:evenodd;fill:#FFCB04;}
	.st2{filter:url(#Adobe_OpacityMaskFilter);}
	.st3{fill-rule:evenodd;clip-rule:evenodd;fill:#FFFFFF;}
	.st4{mask:url(#mask-2_1_);fill-rule:evenodd;clip-rule:evenodd;fill:#FFCB04;}
	.st5{filter:url(#Adobe_OpacityMaskFilter_1_);}
	.st6{mask:url(#mask-4_1_);fill-rule:evenodd;clip-rule:evenodd;fill:#FFCB04;}
	.st7{filter:url(#Adobe_OpacityMaskFilter_2_);}
	.st8{mask:url(#mask-6_4_);fill-rule:evenodd;clip-rule:evenodd;fill:#424143;}
	.st9{filter:url(#Adobe_OpacityMaskFilter_3_);}
	.st10{mask:url(#mask-6_3_);fill-rule:evenodd;clip-rule:evenodd;fill:#424143;}
	.st11{filter:url(#Adobe_OpacityMaskFilter_4_);}
	.st12{mask:url(#mask-6_2_);fill-rule:evenodd;clip-rule:evenodd;fill:#424143;}
	.st13{filter:url(#Adobe_OpacityMaskFilter_5_);}
	.st14{mask:url(#mask-6_1_);fill-rule:evenodd;clip-rule:evenodd;fill:#424143;}
</style>
<g id="InPost-www">
	<g id="strona-glowna" transform="translate(-154.000000, -11.000000)">
		<g id="header">
			<g id="logo" transform="translate(154.000000, 11.000000)">
				<g>
					<path id="Fill-1" class="st0" d="M15.5,17.5c-0.1-0.1-0.2-0.3-0.2-0.5c0-0.2,0.1-0.4,0.2-0.5c0.1-0.1,0.3-0.2,0.6-0.2
						c0.2,0,0.4,0.1,0.6,0.2c0.1,0.1,0.2,0.3,0.2,0.5c0,0.2-0.1,0.4-0.2,0.5c-0.1,0.1-0.3,0.2-0.6,0.2
						C15.9,17.7,15.7,17.6,15.5,17.5 M16.5,17.1c0-0.2-0.2-0.4-0.4-0.4c-0.3,0-0.4,0.1-0.4,0.4c0,0.2,0.2,0.4,0.4,0.4
						C16.4,17.4,16.5,17.3,16.5,17.1"/>
					<path id="Fill-3" class="st0" d="M18.3,16.4h0.4v1.2h-0.4v-0.2c-0.1,0.1-0.3,0.2-0.5,0.2c-0.2,0-0.3,0-0.4-0.1
						c-0.1-0.1-0.2-0.3-0.2-0.5v-0.6h0.4v0.6c0,0.2,0,0.2,0.1,0.3c0.1,0,0.1,0.1,0.2,0.1c0.2,0,0.3-0.1,0.3-0.2c0,0,0-0.1,0-0.2
						V16.4z"/>
					<path id="Fill-5" class="st0" d="M20,17.4v0.3h-0.5c-0.3,0-0.4-0.1-0.4-0.3v-0.6h-0.2v-0.3h0.2v-0.3h0.4v0.3H20v0.3h-0.4v0.5
						c0,0.1,0,0.1,0.1,0.1H20z"/>
					<path id="Fill-7" class="st0" d="M21.1,17.5c-0.1-0.1-0.2-0.3-0.2-0.5c0-0.2,0.1-0.4,0.2-0.5c0.1-0.1,0.3-0.2,0.6-0.2
						s0.4,0.1,0.6,0.2c0.1,0.1,0.2,0.3,0.2,0.5c0,0.2-0.1,0.4-0.2,0.5c-0.1,0.1-0.3,0.2-0.6,0.2S21.3,17.6,21.1,17.5 M22.1,17.1
						c0-0.2-0.2-0.4-0.4-0.4c-0.3,0-0.4,0.1-0.4,0.4c0,0.2,0.2,0.4,0.4,0.4C22,17.4,22.1,17.3,22.1,17.1"/>
					<path id="Fill-9" class="st0" d="M23.6,16.3h-0.2c-0.1,0-0.1,0-0.1,0.1v0.1h0.4v0.3h-0.4v0.9h-0.4v-0.9h-0.2v-0.3h0.2v-0.1
						c0-0.2,0.2-0.4,0.5-0.4h0.2V16.3z"/>
					<path id="Fill-11" class="st0" d="M25.6,17.4v0.3h-0.5c-0.3,0-0.4-0.1-0.4-0.3v-0.6h-0.2v-0.3h0.2v-0.3h0.4v0.3h0.4v0.3h-0.4
						v0.5c0,0.1,0,0.1,0.1,0.1H25.6z"/>
					<path id="Fill-13" class="st0" d="M26,17.7V16h0.4v0.6c0.1-0.1,0.3-0.2,0.5-0.2c0.2,0,0.3,0,0.4,0.1c0.1,0.1,0.2,0.3,0.2,0.5
						v0.6H27v-0.6c0-0.1,0-0.2-0.1-0.3c-0.1,0-0.1-0.1-0.2-0.1c-0.2,0-0.3,0.1-0.4,0.2c0,0,0,0.1,0,0.2v0.6H26z"/>
					<path id="Fill-15" class="st0" d="M27.9,17.5c-0.1-0.1-0.2-0.3-0.2-0.5c0-0.2,0.1-0.3,0.2-0.5c0.1-0.1,0.3-0.2,0.6-0.2
						c0.2,0,0.4,0.1,0.6,0.2c0.1,0.1,0.2,0.2,0.2,0.4c0,0,0,0,0,0c0,0,0,0,0,0.1h-1.2c0,0.2,0.2,0.3,0.5,0.3c0.2,0,0.4-0.1,0.5-0.2
						l0.2,0.2c-0.1,0.1-0.4,0.2-0.7,0.2C28.3,17.7,28.1,17.6,27.9,17.5 M28.1,16.9h0.8c0-0.1-0.2-0.2-0.4-0.2
						C28.3,16.7,28.1,16.8,28.1,16.9"/>
					<path id="Fill-17" class="st0" d="M30.3,17.7V16h0.4v0.6c0.1-0.1,0.3-0.2,0.5-0.2c0.2,0,0.4,0.1,0.5,0.2
						c0.1,0.1,0.2,0.3,0.2,0.5c0,0.2-0.1,0.3-0.2,0.5c-0.1,0.1-0.3,0.2-0.5,0.2c-0.2,0-0.4-0.1-0.5-0.2v0.2H30.3z M31.5,17.1
						c0-0.2-0.2-0.4-0.4-0.4c-0.3,0-0.4,0.1-0.4,0.4c0,0.2,0.2,0.4,0.4,0.4C31.3,17.4,31.5,17.3,31.5,17.1L31.5,17.1z"/>
					<path id="Fill-19" class="st0" d="M32.4,17.5c-0.1-0.1-0.2-0.3-0.2-0.5c0-0.2,0.1-0.4,0.2-0.5c0.1-0.1,0.3-0.2,0.6-0.2
						c0.2,0,0.4,0.1,0.6,0.2c0.1,0.1,0.2,0.3,0.2,0.5c0,0.2-0.1,0.4-0.2,0.5c-0.1,0.1-0.3,0.2-0.6,0.2
						C32.7,17.7,32.5,17.6,32.4,17.5 M33.3,17.1c0-0.2-0.2-0.4-0.4-0.4c-0.3,0-0.4,0.1-0.4,0.4c0,0.2,0.2,0.4,0.4,0.4
						C33.2,17.4,33.3,17.3,33.3,17.1"/>
					<polygon id="Fill-21" class="st0" points="35.5,17.7 35,17.7 34.6,17.3 34.3,17.7 33.8,17.7 34.4,17.1 33.8,16.4 34.3,16.4 
						34.7,16.8 35,16.4 35.4,16.4 34.9,17 					"/>
					<path id="Fill-23" class="st0" d="M19.1,14.4h-1v-2.8c0-0.6-0.3-0.9-0.7-0.9c-0.3,0-0.8,0-1.1,0.1v3.6h-1v-4.3
						c0,0,1.2-0.3,2.2-0.3c0.5,0,0.8,0.2,1.1,0.4c0.3,0.3,0.4,0.7,0.4,1.1V14.4z"/>
					<path id="Fill-25" class="st0" d="M35.4,14.4c-0.2,0-0.3,0.1-0.5,0.1c-0.5,0-0.9-0.1-1.1-0.4c-0.1-0.2-0.2-0.5-0.2-1.1V8.6h1
						v1.3h0.9v0.8h-0.9V13c0,0.3,0,0.4,0.1,0.5c0.1,0.1,0.2,0.2,0.5,0.2c0.1,0,0.2,0,0.2,0V14.4z"/>
					<path id="Fill-27" class="st1" d="M5.5,11.5c0,0-1.1,0.4-2.5,0.4c-1.4,0-2.5-0.4-2.5-0.4s1.1-0.4,2.5-0.4
						C4.3,11.1,5.5,11.5,5.5,11.5"/>
					<g id="Group-31" transform="translate(19.496568, 0.258000)">
						<g id="Clip-30">
						</g>
						<defs>
							<filter id="Adobe_OpacityMaskFilter" filterUnits="userSpaceOnUse" x="-13.4" y="0.7" width="2.8" height="4.1">
								<feColorMatrix  type="matrix" values="1 0 0 0 0  0 1 0 0 0  0 0 1 0 0  0 0 0 1 0"/>
							</filter>
						</defs>
						<mask maskUnits="userSpaceOnUse" x="-13.4" y="0.7" width="2.8" height="4.1" id="mask-2_1_">
							<g class="st2">
								<polygon id="path-1_1_" class="st3" points="-13.4,0.7 -10.5,0.7 -10.5,4.8 -13.4,4.8 								"/>
							</g>
						</mask>
						<path id="Fill-29" class="st4" d="M-10.5,4.8c0,0-1-0.7-1.8-1.8c-0.8-1.1-1-2.3-1-2.3s1,0.7,1.8,1.8
							C-10.8,3.7-10.5,4.8-10.5,4.8"/>
					</g>
					<path id="Fill-32" class="st1" d="M6.4,7.9c0,0-1.2-0.1-2.5-0.8c-1.2-0.6-2-1.5-2-1.5s1.2,0.1,2.5,0.8C5.6,7,6.4,7.9,6.4,7.9"
						/>
					<path id="Fill-34" class="st1" d="M8.9,13.6c0.7,0,1.6-0.6,1.6-0.6s-2-0.6-1.9-2.4C9,7.7,11.4,5.4,14.4,5c-0.3,0-0.6-0.1-1-0.1
						c-3.7,0-6.7,3-6.7,6.6c0,3.6,3,6.5,6.8,6.5c0.3,0,0.6,0,0.9-0.1c-2.6-0.3-4.8-2.1-5.6-4.5"/>
					<g id="Group-38" transform="translate(19.496568, 57.803455)">
						<g id="Clip-37">
						</g>
						<defs>
							<filter id="Adobe_OpacityMaskFilter_1_" filterUnits="userSpaceOnUse" x="-13.4" y="-39.9" width="2.8" height="4.1">
								<feColorMatrix  type="matrix" values="1 0 0 0 0  0 1 0 0 0  0 0 1 0 0  0 0 0 1 0"/>
							</filter>
						</defs>
						<mask maskUnits="userSpaceOnUse" x="-13.4" y="-39.9" width="2.8" height="4.1" id="mask-4_1_">
							<g class="st5">
								<polygon id="path-3_1_" class="st3" points="-13.4,-39.9 -10.5,-39.9 -10.5,-35.8 -13.4,-35.8 								"/>
							</g>
						</mask>
						<path id="Fill-36" class="st6" d="M-10.5-39.9c0,0-1,0.7-1.8,1.8c-0.8,1.1-1,2.3-1,2.3s1-0.7,1.8-1.8
							C-10.8-38.7-10.5-39.9-10.5-39.9"/>
					</g>
					<path id="Fill-39" class="st1" d="M6.4,15.1c0,0-1.2,0.1-2.5,0.8c-1.2,0.6-2,1.5-2,1.5s1.2-0.1,2.5-0.8
						C5.6,16,6.4,15.1,6.4,15.1"/>
					<g id="Clip-42">
					</g>
					<defs>
						<filter id="Adobe_OpacityMaskFilter_2_" filterUnits="userSpaceOnUse" x="13.4" y="8.6" width="1" height="5.8">
							<feColorMatrix  type="matrix" values="1 0 0 0 0  0 1 0 0 0  0 0 1 0 0  0 0 0 1 0"/>
						</filter>
					</defs>
					<mask maskUnits="userSpaceOnUse" x="13.4" y="8.6" width="1" height="5.8" id="mask-6_4_">
						<g class="st7">
							<polygon id="path-5_4_" class="st3" points="0.4,22 35.5,22 35.5,1 0.4,1 							"/>
						</g>
					</mask>
					<polygon id="Fill-41" class="st8" points="13.4,14.4 14.4,14.4 14.4,8.6 13.4,8.6 					"/>
					<defs>
						<filter id="Adobe_OpacityMaskFilter_3_" filterUnits="userSpaceOnUse" x="20" y="8.6" width="4.2" height="5.8">
							<feColorMatrix  type="matrix" values="1 0 0 0 0  0 1 0 0 0  0 0 1 0 0  0 0 0 1 0"/>
						</filter>
					</defs>
					<mask maskUnits="userSpaceOnUse" x="20" y="8.6" width="4.2" height="5.8" id="mask-6_3_">
						<g class="st9">
							<polygon id="path-5_3_" class="st3" points="0.4,22 35.5,22 35.5,1 0.4,1 							"/>
						</g>
					</mask>
					<path id="Fill-43" class="st10" d="M23.3,10.6c0-0.7-0.3-1.1-1-1.1H21v2.1h1.2c0.3,0,0.6-0.1,0.8-0.3
						C23.2,11.2,23.3,10.9,23.3,10.6 M24.3,10.6c0,0.6-0.2,1.1-0.6,1.4c-0.4,0.4-0.9,0.5-1.5,0.5H21v1.8h-1V8.6h2.1
						c0.7,0,1.2,0.2,1.6,0.5C24.1,9.5,24.3,10,24.3,10.6"/>
					<defs>
						<filter id="Adobe_OpacityMaskFilter_4_" filterUnits="userSpaceOnUse" x="24.6" y="9.8" width="4.2" height="4.6">
							<feColorMatrix  type="matrix" values="1 0 0 0 0  0 1 0 0 0  0 0 1 0 0  0 0 0 1 0"/>
						</filter>
					</defs>
					<mask maskUnits="userSpaceOnUse" x="24.6" y="9.8" width="4.2" height="4.6" id="mask-6_2_">
						<g class="st11">
							<polygon id="path-5_2_" class="st3" points="0.4,22 35.5,22 35.5,1 0.4,1 							"/>
						</g>
					</mask>
					<path id="Fill-44" class="st12" d="M27.9,12.1c0-0.4-0.1-0.8-0.3-1c-0.2-0.3-0.5-0.4-0.8-0.4c-0.3,0-0.6,0.1-0.8,0.4
						c-0.2,0.3-0.3,0.6-0.3,1c0,0.4,0.1,0.8,0.3,1c0.2,0.3,0.5,0.4,0.8,0.4c0.3,0,0.6-0.1,0.8-0.4C27.8,12.9,27.9,12.5,27.9,12.1
						 M28.9,12.1c0,0.7-0.2,1.3-0.6,1.7c-0.4,0.4-0.9,0.6-1.5,0.6c-0.6,0-1.1-0.2-1.5-0.6c-0.4-0.4-0.6-1-0.6-1.7
						c0-0.7,0.2-1.3,0.6-1.7c0.4-0.4,0.9-0.6,1.5-0.6c0.6,0,1.1,0.2,1.5,0.6C28.7,10.8,28.9,11.4,28.9,12.1"/>
					<defs>
						<filter id="Adobe_OpacityMaskFilter_5_" filterUnits="userSpaceOnUse" x="29.2" y="9.8" width="3.9" height="4.6">
							<feColorMatrix  type="matrix" values="1 0 0 0 0  0 1 0 0 0  0 0 1 0 0  0 0 0 1 0"/>
						</filter>
					</defs>
					<mask maskUnits="userSpaceOnUse" x="29.2" y="9.8" width="3.9" height="4.6" id="mask-6_1_">
						<g class="st13">
							<polygon id="path-5_1_" class="st3" points="0.4,22 35.5,22 35.5,1 0.4,1 							"/>
						</g>
					</mask>
					<path id="Fill-45" class="st14" d="M33.1,12.9c0,0.4-0.2,0.8-0.5,1.1c-0.3,0.3-0.8,0.4-1.4,0.4c-0.9,0-1.6-0.3-2-0.8l0.7-0.6
						c0.4,0.4,0.8,0.5,1.3,0.5c0.3,0,0.5-0.1,0.6-0.2c0.2-0.1,0.2-0.2,0.2-0.4c0-0.2-0.1-0.3-0.3-0.4c-0.1,0-0.4-0.1-0.9-0.2
						c-0.6-0.1-1-0.2-1.2-0.4c-0.3-0.2-0.4-0.5-0.4-0.9c0-0.4,0.2-0.7,0.5-1c0.3-0.3,0.8-0.4,1.3-0.4c0.7,0,1.3,0.2,1.7,0.7
						l-0.6,0.6c-0.3-0.3-0.7-0.5-1.2-0.5c-0.6,0-0.9,0.2-0.9,0.5c0,0.2,0.1,0.3,0.4,0.4c0.4,0.1,0.7,0.1,1.1,0.2
						C32.7,11.8,33.1,12.2,33.1,12.9"/>
				</g>
			</g>
		</g>
	</g>
</g>
</svg>
