<?xml version="1.0" encoding="utf-8"?>
<!-- Generator: Adobe Illustrator 23.0.1, SVG Export Plug-In . SVG Version: 6.00 Build 0)  -->
<svg version="1.1" id="Layer_1" xmlns="http://www.w3.org/2000/svg" xmlns:xlink="http://www.w3.org/1999/xlink" x="0px" y="0px"
	 viewBox="0 0 27.8 27.8" style="enable-background:new 0 0 27.8 27.8;" xml:space="preserve">
<style type="text/css">
	.st0{fill:url(#SVGID_1_);}
	.st1{fill:url(#SVGID_2_);}
	.st2{fill:url(#SVGID_3_);}
</style>
<title>instagram</title>
<linearGradient id="SVGID_1_" gradientUnits="userSpaceOnUse" x1="8.5323" y1="144.7225" x2="33.7523" y2="120.5825" gradientTransform="matrix(1 0 0 -1 0 139.12)">
	<stop  offset="0" style="stop-color:#FFE185"/>
	<stop  offset="0.21" style="stop-color:#FFBB36"/>
	<stop  offset="0.38" style="stop-color:#FF5176"/>
	<stop  offset="0.52" style="stop-color:#F63395"/>
	<stop  offset="0.74" style="stop-color:#A436D2"/>
	<stop  offset="1" style="stop-color:#5F4EED"/>
</linearGradient>
<path class="st0" d="M21.3,5c-0.9,0-1.6,0.7-1.6,1.6s0.7,1.6,1.6,1.6s1.6-0.7,1.6-1.6c0,0,0,0,0,0C22.9,5.7,22.2,5,21.3,5z"/>
<linearGradient id="SVGID_2_" gradientUnits="userSpaceOnUse" x1="1.4111" y1="137.2911" x2="26.6311" y2="113.1411" gradientTransform="matrix(1 0 0 -1 0 139.12)">
	<stop  offset="0" style="stop-color:#FFE185"/>
	<stop  offset="0.21" style="stop-color:#FFBB36"/>
	<stop  offset="0.38" style="stop-color:#FF5176"/>
	<stop  offset="0.52" style="stop-color:#F63395"/>
	<stop  offset="0.74" style="stop-color:#A436D2"/>
	<stop  offset="1" style="stop-color:#5F4EED"/>
</linearGradient>
<path class="st1" d="M14,7c-3.8,0-6.8,3.1-6.8,6.9c0,3.8,3.1,6.8,6.9,6.8c3.8,0,6.8-3.1,6.8-6.8C20.9,10.1,17.8,7.1,14,7z M14,18.3
	c-2.4,0-4.4-2-4.4-4.4c0-2.4,2-4.4,4.4-4.4s4.4,2,4.4,4.4c0,0,0,0,0,0C18.4,16.3,16.4,18.3,14,18.3z"/>
<linearGradient id="SVGID_3_" gradientUnits="userSpaceOnUse" x1="1.3488" y1="137.2287" x2="26.5788" y2="113.0887" gradientTransform="matrix(1 0 0 -1 0 139.12)">
	<stop  offset="0" style="stop-color:#FFE185"/>
	<stop  offset="0.21" style="stop-color:#FFBB36"/>
	<stop  offset="0.38" style="stop-color:#FF5176"/>
	<stop  offset="0.52" style="stop-color:#F63395"/>
	<stop  offset="0.74" style="stop-color:#A436D2"/>
	<stop  offset="1" style="stop-color:#5F4EED"/>
</linearGradient>
<path class="st2" d="M19.5,27.8H8.3c-4.6,0-8.3-3.7-8.3-8.4V8.4C0,3.7,3.7,0,8.3,0h11.1c4.6,0,8.3,3.7,8.4,8.4v11.1
	C27.8,24.1,24.1,27.8,19.5,27.8z M8.3,2.6c-3.2,0-5.8,2.6-5.8,5.7c0,0,0,0,0,0v11.1c0,3.2,2.6,5.7,5.7,5.7h11.1
	c3.2,0,5.7-2.6,5.7-5.7V8.4c0-3.2-2.6-5.7-5.7-5.7L8.3,2.6z"/>
</svg>
