<svg xmlns="http://www.w3.org/2000/svg" viewBox="0 0 17.45 15.29"><defs><style>.a{fill:#c1985d;}</style></defs><title>ionk-</title><path class="a" d="M15.54,2.18a4.34,4.34,0,0,0-4-1.48A4.25,4.25,0,0,0,9,2.08a3.22,3.22,0,0,0-.24.28,3.58,3.58,0,0,0-.26-.29A4.56,4.56,0,0,0,6.38.78,4.55,4.55,0,0,0,.89,4.13v0q-.08.31-.12.63c0,.09,0,.19,0,.28h0v.75s0,0,0,0v0a5.43,5.43,0,0,0,1,2.57,11.18,11.18,0,0,0,1.94,2.18c1.23,1.07,2.5,2.15,3.73,3.19l.6.5a1.09,1.09,0,0,0,.75.3,1.3,1.3,0,0,0,.82-.33L9.89,14l3-2.51a17.61,17.61,0,0,0,2.62-2.63A5.75,5.75,0,0,0,16.65,6.3,4.83,4.83,0,0,0,15.54,2.18Zm-.91,5.58a12.92,12.92,0,0,1-2.26,2.41l-2.6,2.21-1,.88-.17-.14-.65-.55L7,11.8c-.81-.68-1.64-1.4-2.45-2.11A9.64,9.64,0,0,1,2.83,7.76,3.89,3.89,0,0,1,2.3,4.12,3,3,0,0,1,4.64,2,3.08,3.08,0,0,1,5.32,2a2.85,2.85,0,0,1,2.1.93,7,7,0,0,1,.48.6l.18.24a.79.79,0,0,0,1.11.19.69.69,0,0,0,.19-.19l.1-.15.06-.09A3.5,3.5,0,0,1,10.9,2.27a3,3,0,0,1,2.85.13A3.21,3.21,0,0,1,15.35,5a3.92,3.92,0,0,1-.73,2.79Z"/></svg>