<svg xmlns="http://www.w3.org/2000/svg" viewBox="0 0 17.45 15.29"><defs><style>.a{fill:#c1985d;}</style></defs><title>ionk-</title><path class="a" d="M10.09,13.19A.69.69,0,0,1,9.6,13a.7.7,0,0,1,0-1l2-2s.18-.19.25-.25l1.53-1.47H2.49a.7.7,0,0,1-.75-.67.69.69,0,0,1,.67-.72h7.5l3.29,0-1.4-1.5c-.09-.09-.15-.16-.22-.22l-.68-.68L9.61,3.14a.72.72,0,0,1-.06-1,.73.73,0,0,1,.52-.22.66.66,0,0,1,.48.19l.6.59c1.13,1.11,2.27,2.23,3.37,3.38a2.1,2.1,0,0,1,.63,1.5,2.08,2.08,0,0,1-.62,1.49c-1.28,1.3-2.54,2.55-3.8,3.79l-.1.11A.71.71,0,0,1,10.09,13.19Z"/></svg>