<?xml version="1.0" encoding="utf-8"?>
<!-- Generator: Adobe Illustrator 23.0.1, SVG Export Plug-In . SVG Version: 6.00 Build 0)  -->
<svg version="1.1" id="Layer_1" xmlns="http://www.w3.org/2000/svg" xmlns:xlink="http://www.w3.org/1999/xlink" x="0px" y="0px"
	 viewBox="0 0 27 27" style="enable-background:new 0 0 27 27;" xml:space="preserve">
<style type="text/css">
	.st0{fill:#1078B3;}
</style>
<g>
	<path class="st0" d="M9.4,26.7c0-0.1,0-0.2,0-0.4c0-5.7,0-11.3,0-17c0-0.4,0-0.4,0.4-0.4c1.5,0,3,0,4.5,0c0.3,0,0.3,0,0.3,0.4
		c0,0.6,0,1.2,0,1.8c0,0.1,0,0.2,0,0.3c0.1-0.1,0.1-0.1,0.2-0.1c1-1.7,2.5-2.5,4.4-2.7c1.2-0.1,2.4,0,3.5,0.4
		c1.6,0.5,2.6,1.7,3.2,3.3c0.3,0.9,0.5,1.8,0.5,2.7c0,0.5,0,0.9,0.1,1.4c0,0.1,0,0.2,0,0.3c0,3.4,0,6.8,0,10.2c-1.8,0-3.7,0-5.5,0
		c0-0.1,0-0.1,0-0.2c0-3.2,0-6.4,0-9.6c0-0.5-0.1-1.1-0.2-1.6c-0.2-0.9-0.7-1.5-1.5-1.9c-0.5-0.2-0.9-0.2-1.4-0.2
		c-1.3,0-2.2,0.7-2.7,1.9c-0.3,0.8-0.4,1.6-0.4,2.4c0,2.9,0,5.9,0,8.8c0,0.1,0,0.2,0,0.3C13.1,26.7,11.3,26.7,9.4,26.7z"/>
	<path class="st0" d="M0.5,26.7c0-0.1,0-0.3,0-0.4c0-5.7,0-11.3,0-17c0-0.4,0-0.4,0.4-0.4c1.6,0,3.2,0,4.7,0c0.3,0,0.3,0,0.3,0.3
		c0,5.7,0,11.3,0,17c0,0.1,0,0.3,0,0.4C4.1,26.7,2.3,26.7,0.5,26.7z"/>
	<path class="st0" d="M3.4,0c0.2,0,0.4,0.1,0.5,0.1c1.3,0.3,2.3,1.4,2.4,2.7c0.2,1.6-1,3.3-2.7,3.5C1.9,6.6,0.3,5.3,0.1,3.6
		c0-0.1,0-0.1-0.1-0.2C0,3.3,0,3.1,0,3c0-0.1,0.1-0.1,0.1-0.2c0.1-1.3,1.1-2.4,2.4-2.7C2.7,0.1,2.8,0,3,0C3.1,0,3.3,0,3.4,0z"/>
</g>
</svg>
