<?xml version="1.0" encoding="utf-8"?>
<!-- Generator: Adobe Illustrator 23.0.1, SVG Export Plug-In . SVG Version: 6.00 Build 0)  -->
<svg version="1.1" id="Layer_1" xmlns="http://www.w3.org/2000/svg" xmlns:xlink="http://www.w3.org/1999/xlink" x="0px" y="0px"
	 viewBox="0 0 42.2 23" style="enable-background:new 0 0 42.2 23;" xml:space="preserve">
<style type="text/css">
	.st0{fill:#BBCE00;}
	.st1{fill:url(#SVGID_1_);}
</style>
<path class="st0" d="M40.4,5.3l-1.8,0c-0.2,0-0.3-0.2-0.3-0.3l0-1.8c0-0.2,0.2-0.3,0.3-0.3l1.8,0c0.2,0,0.3,0.2,0.3,0.3l0,1.8
	C40.8,5.2,40.6,5.3,40.4,5.3z"/>
<path class="st0" d="M38.1,2.8l-1.2,0c-0.1,0-0.2-0.1-0.2-0.2l0-1.2c0-0.1,0.1-0.2,0.2-0.2l1.2,0c0.1,0,0.2,0.1,0.2,0.2l0,1.2
	C38.3,2.7,38.2,2.8,38.1,2.8z"/>
<linearGradient id="SVGID_1_" gradientUnits="userSpaceOnUse" x1="18.8204" y1="9.2574" x2="18.8204" y2="24.3991">
	<stop  offset="0" style="stop-color:#BBCE00"/>
	<stop  offset="1" style="stop-color:#428E29"/>
</linearGradient>
<path class="st1" d="M5.5,6.1H3c-1.4,0-2,0.6-2,2v8.8c0,0.5,0.2,0.7,0.7,0.7h0.2c0.5,0,0.7-0.2,0.7-0.7v-3.4h3
	c2.6,0,3.9-1.2,3.9-3.7C9.4,7.3,8.2,6.1,5.5,6.1z M7.8,9.8c0,1.4-0.4,2.2-2.3,2.2h-3V8.3c0-0.5,0.2-0.7,0.7-0.7h2.3
	C7,7.6,7.8,8,7.8,9.8z M12.7,8.6c-1,0-1.6,0.1-1.9,0.2c-0.4,0.1-0.6,0.2-0.6,0.7v0.1c0,0.2,0,0.3,0.1,0.4c0.1,0.1,0.2,0.2,0.3,0.2
	c0.1,0,0.2,0,0.3,0c0.2-0.1,1-0.2,1.9-0.2c1.5,0,2.2,0.4,2.2,1.5v0.9H13c-2.5,0-3.6,0.8-3.6,2.6c0,1.7,1.2,2.7,3.4,2.7
	c2.6,0,3.7-0.9,3.7-2.8v-3.4C16.4,9.6,15.2,8.6,12.7,8.6z M14.9,13.6v1.2c0,1-0.4,1.5-2.2,1.5c-1.2,0-1.8-0.4-1.8-1.4
	c0-1,0.6-1.4,2.1-1.4H14.9z M24.9,9.6l-2,8c-0.6,2.3-1.6,3.3-3.4,3.5c0,0-0.1,0-0.1,0c-0.4,0-0.5-0.2-0.6-0.6l0-0.2
	c0-0.2-0.1-0.3,0-0.5c0.1-0.1,0.3-0.2,0.5-0.2c1.2-0.1,1.7-0.7,2.1-2c-0.2,0.1-0.4,0.1-0.7,0.1c-1.4,0-1.7-1-2-2.1l-1.6-6
	C17,9.4,16.9,9.2,17,9c0.1-0.1,0.3-0.2,0.5-0.2h0.1c0.5,0,0.7,0.2,0.8,0.7l1.6,6c0.2,0.7,0.4,0.9,0.9,0.9c0.4,0,0.7-0.1,0.9-0.9
	l1.4-6c0.1-0.5,0.3-0.7,0.8-0.7h0.2c0.2,0,0.4,0,0.5,0.2C25,9.2,25,9.4,24.9,9.6z M36.6,7.3v2.3V12v1.3c0,1-0.2,1.8-0.6,2.5
	c-0.8,1.3-2.4,2-4.6,2c0,0,0,0,0,0c0,0,0,0,0,0c-2.2,0-3.8-0.7-4.6-2c-0.4-0.7-0.6-1.5-0.6-2.5V12V9.6V7.3c0-1,0.4-1.2,1.5-1.2h0.3
	c1.1,0,1.5,0.2,1.5,1.2v2.3c0,0,0,0,0,0v0.5c0,0,0,0,0,0.1v3.2c0,0.4,0.1,0.7,0.2,0.9c0.3,0.4,0.9,0.7,1.8,0.7
	c0.9,0,1.5-0.2,1.8-0.7c0.2-0.2,0.2-0.6,0.2-0.9v-3.2c0,0,0,0,0-0.1V9.6c0,0,0,0,0,0V7.3c0-1,0.4-1.2,1.5-1.2h0.3
	C36.2,6.1,36.6,6.3,36.6,7.3z"/>
<path class="st0" d="M37.8,8.7l-2.4,0c-0.3,0-0.5-0.2-0.5-0.5l0-2.4c0-0.3,0.2-0.5,0.5-0.5l2.4,0c0.3,0,0.5,0.2,0.5,0.5l0,2.4
	C38.3,8.4,38.1,8.7,37.8,8.7z"/>
</svg>
