<svg xmlns="http://www.w3.org/2000/svg" viewBox="0 0 21.31 27.51"><defs><style>.a{fill:red;fill-rule:evenodd;}</style></defs><title>instagram</title><path class="a" d="M8.91,18c0,.08-.05.14-.06.21-1,4-1.13,4.84-2.16,6.68A22.07,22.07,0,0,1,5,27.33c-.07.09-.14.21-.28.18s-.16-.17-.18-.29a21,21,0,0,1-.22-3.63c0-1.58.25-2.12,2.29-10.7a.56.56,0,0,0,0-.36,6.06,6.06,0,0,1-.16-4c.93-2.92,4.24-3.15,4.82-.73.36,1.49-.58,3.44-1.31,6.33-.6,2.39,2.21,4.08,4.6,2.34,2.21-1.6,3.07-5.45,2.91-8.17-.32-5.44-6.28-6.61-10.06-4.86C3.05,5.43,2.06,10.8,4,13.26c.25.31.44.5.36.82-.13.49-.24,1-.38,1.47a.52.52,0,0,1-.77.35,4.41,4.41,0,0,1-1.81-1.36c-1.66-2-2.14-6.12.06-9.57A11.5,11.5,0,0,1,12.57.08C17.51.64,20.63,4,21.21,7.84a12.89,12.89,0,0,1-2.37,9.08C16,20.41,11.46,20.64,9.36,18.5,9.2,18.34,9.07,18.14,8.91,18Z"/></svg>