<svg xmlns="http://www.w3.org/2000/svg" viewBox="0 0 24.71 27.92"><defs><style>.a{fill:#ff1753;}.a,.b,.c{fill-rule:evenodd;}.c{fill:#00c9d0;}</style></defs><title>instagram</title><path class="a" d="M18.31,10.08a11,11,0,0,0,6.4,2.05V7.54a6.7,6.7,0,0,1-1.34-.14V11A11,11,0,0,1,17,9v9.37a8.48,8.48,0,0,1-13.21,7,8.49,8.49,0,0,0,14.55-5.93V10.08ZM20,5.45a6.42,6.42,0,0,1-1.66-3.74V1.12H17A6.43,6.43,0,0,0,20,5.45ZM6.73,21.78a3.87,3.87,0,0,1,3.08-6.23,3.93,3.93,0,0,1,1.18.18V11A8.54,8.54,0,0,0,9.65,11v3.65a3.93,3.93,0,0,0-1.18-.18,3.88,3.88,0,0,0-1.74,7.35Z"/><path class="b" d="M17,9a11,11,0,0,0,6.4,2V7.4A6.48,6.48,0,0,1,20,5.45,6.43,6.43,0,0,1,17,1.12H13.7V19.44a3.89,3.89,0,0,1-3.89,3.87,3.85,3.85,0,0,1-3.08-1.53,3.88,3.88,0,0,1,1.74-7.35,4.16,4.16,0,0,1,1.18.18V11A8.48,8.48,0,0,0,3.76,25.37a8.48,8.48,0,0,0,13.21-7Z"/><path class="c" d="M23.37,7.4v-1a6.39,6.39,0,0,1-3.4-1A6.4,6.4,0,0,0,23.37,7.4ZM17,1.12C17,.94,17,.77,17,.59V0H12.35V18.33a3.88,3.88,0,0,1-5.62,3.45,3.85,3.85,0,0,0,3.08,1.53,3.89,3.89,0,0,0,3.89-3.87V1.12ZM9.65,11v-1a7.6,7.6,0,0,0-1.16-.07A8.48,8.48,0,0,0,3.76,25.37,8.48,8.48,0,0,1,9.65,11Z"/></svg>