<svg xmlns="http://www.w3.org/2000/svg" viewBox="0 0 31.41 25.85"><defs><style>.a{fill:#0cf;}</style></defs><title>instagram</title><path class="a" d="M31.28,3.1A13,13,0,0,1,28.1,4c.51-.08,1.26-1,1.56-1.38A5.93,5.93,0,0,0,30.72.7c0-.06,0-.13,0-.17a.17.17,0,0,0-.17,0A16.22,16.22,0,0,1,26.77,2a.25.25,0,0,1-.25-.07,3.58,3.58,0,0,0-.33-.34A7,7,0,0,0,24.36.46,6.38,6.38,0,0,0,21.56,0a6.67,6.67,0,0,0-2.65.75,6.84,6.84,0,0,0-2.14,1.75,6.57,6.57,0,0,0-1.28,2.56,7.06,7.06,0,0,0-.07,2.71c0,.15,0,.17-.13.15C10.12,7.16,5.83,5.31,2.35,1.34c-.15-.17-.23-.17-.35,0C.47,3.64,1.21,7.31,3.12,9.11c.25.24.51.48.79.7a6.73,6.73,0,0,1-2.5-.7c-.15-.1-.22,0-.24.13a4.72,4.72,0,0,0,0,.74A6.67,6.67,0,0,0,5.3,15.27a4,4,0,0,0,.83.25,7.4,7.4,0,0,1-2.45.08c-.17,0-.24.05-.17.22a6.85,6.85,0,0,0,5.14,4.31c.23,0,.47,0,.7.1l0,0c-.58.88-2.58,1.54-3.51,1.86a12.61,12.61,0,0,1-5.34.69c-.29-.05-.35,0-.43,0s0,.11.09.19c.36.24.73.45,1.11.66A17.49,17.49,0,0,0,4.8,25.09c6.41,1.77,13.63.47,18.44-4.31C27,17,28.35,11.84,28.35,6.66c0-.2.24-.32.38-.42a12.68,12.68,0,0,0,2.51-2.61.86.86,0,0,0,.17-.5v0C31.41,3,31.4,3,31.28,3.1Z"/></svg>