<?xml version="1.0" encoding="utf-8"?>
<!-- Generator: Adobe Illustrator 23.0.1, SVG Export Plug-In . SVG Version: 6.00 Build 0)  -->
<svg version="1.1" id="Layer_1" xmlns="http://www.w3.org/2000/svg" xmlns:xlink="http://www.w3.org/1999/xlink" x="0px" y="0px"
	 viewBox="0 0 23 23" style="enable-background:new 0 0 23 23;" xml:space="preserve">
<style type="text/css">
	.st0{fill:#FFB500;}
	.st1{fill:#351C15;}
</style>
<path class="st0" d="M11.5,22.3c-0.6-0.3-5.2-2.2-6.7-3.5c-1.6-1.3-2.5-3.4-2.4-5.5V2.7c2.5-1.3,5.6-2,9.1-2s6.6,0.7,9.1,2v10.7
	c0.1,2.1-0.8,4.1-2.4,5.5C16.7,20,12.1,22.1,11.5,22.3L11.5,22.3z"/>
<path class="st1" d="M15,9.7c0-1.2,1-2.1,2.1-2.1c0.6,0,1.2,0.1,1.7,0.5v1.4c-0.4-0.4-0.9-0.6-1.4-0.6c-0.4,0-0.9,0.2-0.9,0.8
	c0,0.6,0.5,0.8,1,1.1c1.3,0.8,1.6,1.5,1.6,2.4c0,1.2-1,2.1-2.2,2.1c0,0-0.1,0-0.1,0c-0.6,0-1.2-0.2-1.7-0.5v-1.5
	c0.4,0.4,1,0.6,1.5,0.6c0.5,0.1,0.9-0.3,0.9-0.7c0-0.1,0-0.1,0-0.2c0-0.5-0.3-0.8-1-1.2C15.2,11.2,15,10.5,15,9.7L15,9.7z M11.2,9
	c0.2-0.1,0.4-0.1,0.6-0.1c0.9,0,1.3,0.7,1.3,2.5S12.6,14,11.7,14c-0.2,0-0.4,0-0.5-0.1L11.2,9L11.2,9z M11.2,18.5H9.6V8.2
	c0.6-0.4,1.4-0.6,2.1-0.6c1.9,0,2.9,1.4,2.9,3.7s-1,3.9-2.8,3.9c-0.2,0-0.5,0-0.7-0.1L11.2,18.5L11.2,18.5z M4,12.8v-5h1.6v5
	c0,0.4,0.1,1.1,0.8,1.1c0.3,0,0.5-0.1,0.7-0.2V7.8h1.6v6.9c-0.7,0.4-1.5,0.7-2.4,0.6C4.8,15.3,4,14.4,4,12.8L4,12.8z M3.2,13.4
	C3.2,15.3,4,17,5.4,18.2c1.2,1,5.1,2.7,6.1,3.2c1.1-0.5,4.9-2.2,6.1-3.2c1.4-1.2,2.2-3,2.1-4.8V2.9C14.5,2.4,8.2,2.7,3.2,7.3
	L3.2,13.4L3.2,13.4z"/>
</svg>
